<?xml version="1.0" encoding="UTF-8" standalone="no"?>
<!-- Created with Inkscape (http://www.inkscape.org/) -->

<svg
   xmlns:dc="http://purl.org/dc/elements/1.1/"
   xmlns:cc="http://creativecommons.org/ns#"
   xmlns:rdf="http://www.w3.org/1999/02/22-rdf-syntax-ns#"
   xmlns:svg="http://www.w3.org/2000/svg"
   xmlns="http://www.w3.org/2000/svg"
   xmlns:sodipodi="http://sodipodi.sourceforge.net/DTD/sodipodi-0.dtd"
   xmlns:inkscape="http://www.inkscape.org/namespaces/inkscape"
   width="297mm"
   height="210mm"
   id="svg6808"
   version="1.1"
   inkscape:version="0.48.0 r9654"
   sodipodi:docname="regular_grid.svg">
  <defs
     id="defs6810">
    <marker
       inkscape:stockid="Arrow1Lstart"
       orient="auto"
       refY="0.0"
       refX="0.0"
       id="Arrow1Lstart"
       style="overflow:visible">
      <path
         id="path3915"
         d="M 0.0,0.0 L 5.0,-5.0 L -12.5,0.0 L 5.0,5.0 L 0.0,0.0 z "
         style="fill-rule:evenodd;stroke:#000000;stroke-width:1.0pt;marker-start:none"
         transform="scale(0.8) translate(12.5,0)" />
    </marker>
    <marker
       inkscape:stockid="Arrow1Lend"
       orient="auto"
       refY="0.0"
       refX="0.0"
       id="Arrow1Lend"
       style="overflow:visible;">
      <path
         id="path3918"
         d="M 0.0,0.0 L 5.0,-5.0 L -12.5,0.0 L 5.0,5.0 L 0.0,0.0 z "
         style="fill-rule:evenodd;stroke:#000000;stroke-width:1.0pt;marker-start:none;"
         transform="scale(0.8) rotate(180) translate(12.5,0)" />
    </marker>
  </defs>
  <sodipodi:namedview
     inkscape:document-units="mm"
     pagecolor="#ffffff"
     bordercolor="#666666"
     borderopacity="1.0"
     inkscape:pageopacity="0.0"
     inkscape:pageshadow="2"
     inkscape:zoom="0.5"
     inkscape:cx="317.23082"
     inkscape:cy="447.8346"
     inkscape:current-layer="layer1"
     id="namedview6812"
     showgrid="false"
     inkscape:window-width="1280"
     inkscape:window-height="977"
     inkscape:window-x="-4"
     inkscape:window-y="-4"
     inkscape:window-maximized="1" />
  <metadata
     id="metadata6814">
    <rdf:RDF>
      <cc:Work
         rdf:about="">
        <dc:format>image/svg+xml</dc:format>
        <dc:type
           rdf:resource="http://purl.org/dc/dcmitype/StillImage" />
        <dc:title></dc:title>
      </cc:Work>
    </rdf:RDF>
  </metadata>
  <g
     inkscape:label="Layer 1"
     inkscape:groupmode="layer"
     id="layer1">
    <path
       style="fill:none;stroke:#000000;stroke-width:2.50461698;stroke-linecap:butt;stroke-linejoin:miter;stroke-miterlimit:4;stroke-opacity:1;stroke-dasharray:none"
       d="M 54.503172,346.20362 C 985.1183,349.08807 985.1183,349.08807 985.1183,349.08807"
       id="path7331"
       inkscape:connector-curvature="0" />
    <rect
       style="fill:#ffffff;fill-opacity:1;stroke:#000000;stroke-width:2.50264478;stroke-miterlimit:4;stroke-opacity:1;stroke-dasharray:none;stroke-dashoffset:0"
       id="rect7327"
       width="191.81599"
       height="191.81599"
       x="260.64484"
       y="172.35704"
       transform="matrix(0.99582113,0.09132508,-0.09132508,0.99582113,0,0)" />
    <rect
       y="161.67131"
       x="687.57153"
       height="191.85028"
       width="186.5612"
       id="rect7329"
       style="fill:#ffffff;fill-opacity:1;stroke:#000000;stroke-width:2.46834779;stroke-miterlimit:4;stroke-opacity:1;stroke-dasharray:none;stroke-dashoffset:0"
       transform="matrix(0.99582113,0.09132508,-0.09132508,0.99582113,0,0)" />
    <path
       style="fill:none;stroke:#000000;stroke-width:1.25230849;stroke-linecap:butt;stroke-linejoin:miter;stroke-miterlimit:4;stroke-opacity:1;stroke-dasharray:none;marker-end:url(#Arrow1Lend)"
       d="m 117.43825,350.38729 110.65481,9.28072"
       id="path7335"
       inkscape:connector-curvature="0" />
    <path
       inkscape:connector-curvature="0"
       id="path7521"
       d="m 542.89475,374.90512 110.6548,9.28072"
       style="fill:none;stroke:#000000;stroke-width:1.25230849;stroke-linecap:butt;stroke-linejoin:miter;stroke-miterlimit:4;stroke-opacity:1;stroke-dasharray:none;marker-end:url(#Arrow1Lend)" />
    <path
       style="fill:none;stroke:#000000;stroke-width:1.25230849;stroke-linecap:butt;stroke-linejoin:miter;stroke-miterlimit:4;stroke-opacity:1;stroke-dasharray:none;marker-start:url(#Arrow1Lstart);marker-end:none"
       d="m 838.55096,406.25425 110.6548,9.28072"
       id="path7523"
       inkscape:connector-curvature="0" />
    <path
       inkscape:connector-curvature="0"
       id="path7893"
       d="m 842.87764,365.87194 110.6548,9.28072"
       style="fill:none;stroke:#000000;stroke-width:1.25230849;stroke-linecap:butt;stroke-linejoin:miter;stroke-miterlimit:4;stroke-opacity:1;stroke-dasharray:none;marker-start:url(#Arrow1Lstart);marker-end:none" />
    <path
       style="fill:none;stroke:#000000;stroke-width:1.25230849;stroke-linecap:butt;stroke-linejoin:miter;stroke-miterlimit:4;stroke-opacity:1;stroke-dasharray:none;marker-start:url(#Arrow1Lstart);marker-end:none"
       d="m 420.30558,375.96751 110.65481,9.28072"
       id="path7895"
       inkscape:connector-curvature="0" />
    <path
       inkscape:connector-curvature="0"
       id="path7897"
       d="M 253.63524,389.91742 241.26178,500.2692"
       style="fill:none;stroke:#000000;stroke-width:1.25230849;stroke-linecap:butt;stroke-linejoin:miter;stroke-miterlimit:4;stroke-opacity:1;stroke-dasharray:none;marker-start:url(#Arrow1Lstart);marker-end:none" />
    <path
       style="fill:none;stroke:#000000;stroke-width:1.25230849;stroke-linecap:butt;stroke-linejoin:miter;stroke-miterlimit:4;stroke-opacity:1;stroke-dasharray:none;marker-start:url(#Arrow1Lstart);marker-end:none"
       d="M 291.1331,394.2441 278.75964,504.59588"
       id="path7899"
       inkscape:connector-curvature="0" />
    <path
       inkscape:connector-curvature="0"
       id="path7901"
       d="M 334.39987,398.57077 322.02641,508.92255"
       style="fill:none;stroke:#000000;stroke-width:1.25230849;stroke-linecap:butt;stroke-linejoin:miter;stroke-miterlimit:4;stroke-opacity:1;stroke-dasharray:none;marker-start:url(#Arrow1Lstart);marker-end:none" />
    <path
       style="fill:none;stroke:#000000;stroke-width:1.25230849;stroke-linecap:butt;stroke-linejoin:miter;stroke-miterlimit:4;stroke-opacity:1;stroke-dasharray:none;marker-start:url(#Arrow1Lstart);marker-end:none"
       d="M 377.66664,402.89745 365.29318,513.24923"
       id="path7903"
       inkscape:connector-curvature="0" />
    <path
       style="fill:none;stroke:#000000;stroke-width:1.25230849;stroke-linecap:butt;stroke-linejoin:miter;stroke-miterlimit:4;stroke-opacity:1;stroke-dasharray:none;marker-start:url(#Arrow1Lstart);marker-end:none"
       d="M 681.97619,415.87748 669.60273,526.22926"
       id="path7905"
       inkscape:connector-curvature="0" />
    <path
       inkscape:connector-curvature="0"
       id="path7907"
       d="M 719.47405,420.20415 707.10059,530.55593"
       style="fill:none;stroke:#000000;stroke-width:1.25230849;stroke-linecap:butt;stroke-linejoin:miter;stroke-miterlimit:4;stroke-opacity:1;stroke-dasharray:none;marker-start:url(#Arrow1Lstart);marker-end:none" />
    <path
       style="fill:none;stroke:#000000;stroke-width:1.25230849;stroke-linecap:butt;stroke-linejoin:miter;stroke-miterlimit:4;stroke-opacity:1;stroke-dasharray:none;marker-start:url(#Arrow1Lstart);marker-end:none"
       d="M 762.74082,424.53083 750.36736,534.88261"
       id="path7909"
       inkscape:connector-curvature="0" />
    <path
       inkscape:connector-curvature="0"
       id="path7911"
       d="M 806.00758,428.8575 793.63413,539.20928"
       style="fill:none;stroke:#000000;stroke-width:1.25230849;stroke-linecap:butt;stroke-linejoin:miter;stroke-miterlimit:4;stroke-opacity:1;stroke-dasharray:none;marker-start:url(#Arrow1Lstart);marker-end:none" />
    <path
       transform="matrix(0.78442356,0,0,0.70598123,713.62777,346.22293)"
       d="m 165.83811,85.348671 a 5.1824408,5.7582674 0 1 1 -10.36488,0 5.1824408,5.7582674 0 1 1 10.36488,0 z"
       sodipodi:ry="5.7582674"
       sodipodi:rx="5.1824408"
       sodipodi:cy="85.348671"
       sodipodi:cx="160.65567"
       id="path7915"
       style="fill:#000000;fill-opacity:1;stroke:#000000;stroke-width:1;stroke-miterlimit:4;stroke-opacity:1;stroke-dasharray:none;stroke-dashoffset:0"
       sodipodi:type="arc" />
    <path
       sodipodi:type="arc"
       style="fill:#000000;fill-opacity:1;stroke:#000000;stroke-width:1;stroke-miterlimit:4;stroke-opacity:1;stroke-dasharray:none;stroke-dashoffset:0"
       id="path7917"
       sodipodi:cx="160.65567"
       sodipodi:cy="85.348671"
       sodipodi:rx="5.1824408"
       sodipodi:ry="5.7582674"
       d="m 165.83811,85.348671 a 5.1824408,5.7582674 0 1 1 -10.36488,0 5.1824408,5.7582674 0 1 1 10.36488,0 z"
       transform="matrix(0.78442356,0,0,0.70598123,719.2317,305.93194)" />
    <path
       transform="matrix(0.78442356,0,0,0.70598123,722.04018,261.65615)"
       d="m 165.83811,85.348671 a 5.1824408,5.7582674 0 1 1 -10.36488,0 5.1824408,5.7582674 0 1 1 10.36488,0 z"
       sodipodi:ry="5.7582674"
       sodipodi:rx="5.1824408"
       sodipodi:cy="85.348671"
       sodipodi:cx="160.65567"
       id="path7919"
       style="fill:#000000;fill-opacity:1;stroke:#000000;stroke-width:1;stroke-miterlimit:4;stroke-opacity:1;stroke-dasharray:none;stroke-dashoffset:0"
       sodipodi:type="arc" />
    <path
       sodipodi:type="arc"
       style="fill:#000000;fill-opacity:1;stroke:#000000;stroke-width:1;stroke-miterlimit:4;stroke-opacity:1;stroke-dasharray:none;stroke-dashoffset:0"
       id="path7921"
       sodipodi:cx="160.65567"
       sodipodi:cy="85.348671"
       sodipodi:rx="5.1824408"
       sodipodi:ry="5.7582674"
       d="m 165.83811,85.348671 a 5.1824408,5.7582674 0 1 1 -10.36488,0 5.1824408,5.7582674 0 1 1 10.36488,0 z"
       transform="matrix(0.78442356,0,0,0.70598123,726.46775,216.49484)" />
    <path
       sodipodi:type="arc"
       style="fill:#000000;fill-opacity:1;stroke:#000000;stroke-width:1;stroke-miterlimit:4;stroke-opacity:1;stroke-dasharray:none;stroke-dashoffset:0"
       id="path7925"
       sodipodi:cx="160.65567"
       sodipodi:cy="85.348671"
       sodipodi:rx="5.1824408"
       sodipodi:ry="5.7582674"
       d="m 165.83811,85.348671 a 5.1824408,5.7582674 0 1 1 -10.36488,0 5.1824408,5.7582674 0 1 1 10.36488,0 z"
       transform="matrix(0.78442356,0,0,0.70598123,528.99773,324.52779)" />
    <path
       transform="matrix(0.78442356,0,0,0.70598123,532.83062,282.46578)"
       d="m 165.83811,85.348671 a 5.1824408,5.7582674 0 1 1 -10.36488,0 5.1824408,5.7582674 0 1 1 10.36488,0 z"
       sodipodi:ry="5.7582674"
       sodipodi:rx="5.1824408"
       sodipodi:cy="85.348671"
       sodipodi:cx="160.65567"
       id="path7927"
       style="fill:#000000;fill-opacity:1;stroke:#000000;stroke-width:1;stroke-miterlimit:4;stroke-opacity:1;stroke-dasharray:none;stroke-dashoffset:0"
       sodipodi:type="arc" />
    <path
       sodipodi:type="arc"
       style="fill:#000000;fill-opacity:1;stroke:#000000;stroke-width:1;stroke-miterlimit:4;stroke-opacity:1;stroke-dasharray:none;stroke-dashoffset:0"
       id="path7929"
       sodipodi:cx="160.65567"
       sodipodi:cy="85.348671"
       sodipodi:rx="5.1824408"
       sodipodi:ry="5.7582674"
       d="m 165.83811,85.348671 a 5.1824408,5.7582674 0 1 1 -10.36488,0 5.1824408,5.7582674 0 1 1 10.36488,0 z"
       transform="matrix(0.78442356,0,0,0.70598123,537.85289,239.51826)" />
    <path
       transform="matrix(0.78442356,0,0,0.70598123,542.28047,194.35695)"
       d="m 165.83811,85.348671 a 5.1824408,5.7582674 0 1 1 -10.36488,0 5.1824408,5.7582674 0 1 1 10.36488,0 z"
       sodipodi:ry="5.7582674"
       sodipodi:rx="5.1824408"
       sodipodi:cy="85.348671"
       sodipodi:cx="160.65567"
       id="path7931"
       style="fill:#000000;fill-opacity:1;stroke:#000000;stroke-width:1;stroke-miterlimit:4;stroke-opacity:1;stroke-dasharray:none;stroke-dashoffset:0"
       sodipodi:type="arc" />
    <path
       transform="matrix(0.78442356,0,0,0.70598123,293.45052,314.34435)"
       d="m 165.83811,85.348671 a 5.1824408,5.7582674 0 1 1 -10.36488,0 5.1824408,5.7582674 0 1 1 10.36488,0 z"
       sodipodi:ry="5.7582674"
       sodipodi:rx="5.1824408"
       sodipodi:cy="85.348671"
       sodipodi:cx="160.65567"
       id="path7933"
       style="fill:#000000;fill-opacity:1;stroke:#000000;stroke-width:1;stroke-miterlimit:4;stroke-opacity:1;stroke-dasharray:none;stroke-dashoffset:0"
       sodipodi:type="arc" />
    <path
       sodipodi:type="arc"
       style="fill:#000000;fill-opacity:1;stroke:#000000;stroke-width:1;stroke-miterlimit:4;stroke-opacity:1;stroke-dasharray:none;stroke-dashoffset:0"
       id="path7935"
       sodipodi:cx="160.65567"
       sodipodi:cy="85.348671"
       sodipodi:rx="5.1824408"
       sodipodi:ry="5.7582674"
       d="m 165.83811,85.348671 a 5.1824408,5.7582674 0 1 1 -10.36488,0 5.1824408,5.7582674 0 1 1 10.36488,0 z"
       transform="matrix(0.78442356,0,0,0.70598123,297.72618,273.16786)" />
    <path
       transform="matrix(0.78442356,0,0,0.70598123,300.53465,228.89207)"
       d="m 165.83811,85.348671 a 5.1824408,5.7582674 0 1 1 -10.36488,0 5.1824408,5.7582674 0 1 1 10.36488,0 z"
       sodipodi:ry="5.7582674"
       sodipodi:rx="5.1824408"
       sodipodi:cy="85.348671"
       sodipodi:cx="160.65567"
       id="path7937"
       style="fill:#000000;fill-opacity:1;stroke:#000000;stroke-width:1;stroke-miterlimit:4;stroke-opacity:1;stroke-dasharray:none;stroke-dashoffset:0"
       sodipodi:type="arc" />
    <path
       sodipodi:type="arc"
       style="fill:#000000;fill-opacity:1;stroke:#000000;stroke-width:1;stroke-miterlimit:4;stroke-opacity:1;stroke-dasharray:none;stroke-dashoffset:0"
       id="path7939"
       sodipodi:cx="160.65567"
       sodipodi:cy="85.348671"
       sodipodi:rx="5.1824408"
       sodipodi:ry="5.7582674"
       d="m 165.83811,85.348671 a 5.1824408,5.7582674 0 1 1 -10.36488,0 5.1824408,5.7582674 0 1 1 10.36488,0 z"
       transform="matrix(0.78442356,0,0,0.70598123,304.96223,183.73076)" />
    <path
       sodipodi:type="arc"
       style="fill:#000000;fill-opacity:1;stroke:#000000;stroke-width:1;stroke-miterlimit:4;stroke-opacity:1;stroke-dasharray:none;stroke-dashoffset:0"
       id="path7941"
       sodipodi:cx="160.65567"
       sodipodi:cy="85.348671"
       sodipodi:rx="5.1824408"
       sodipodi:ry="5.7582674"
       d="m 165.83811,85.348671 a 5.1824408,5.7582674 0 1 1 -10.36488,0 5.1824408,5.7582674 0 1 1 10.36488,0 z"
       transform="matrix(0.78442356,0,0,0.70598123,103.06463,298.40507)" />
    <path
       transform="matrix(0.78442356,0,0,0.70598123,106.89752,255.90031)"
       d="m 165.83811,85.348671 a 5.1824408,5.7582674 0 1 1 -10.36488,0 5.1824408,5.7582674 0 1 1 10.36488,0 z"
       sodipodi:ry="5.7582674"
       sodipodi:rx="5.1824408"
       sodipodi:cy="85.348671"
       sodipodi:cx="160.65567"
       id="path7943"
       style="fill:#000000;fill-opacity:1;stroke:#000000;stroke-width:1;stroke-miterlimit:4;stroke-opacity:1;stroke-dasharray:none;stroke-dashoffset:0"
       sodipodi:type="arc" />
    <path
       sodipodi:type="arc"
       style="fill:#000000;fill-opacity:1;stroke:#000000;stroke-width:1;stroke-miterlimit:4;stroke-opacity:1;stroke-dasharray:none;stroke-dashoffset:0"
       id="path7945"
       sodipodi:cx="160.65567"
       sodipodi:cy="85.348671"
       sodipodi:rx="5.1824408"
       sodipodi:ry="5.7582674"
       d="m 165.83811,85.348671 a 5.1824408,5.7582674 0 1 1 -10.36488,0 5.1824408,5.7582674 0 1 1 10.36488,0 z"
       transform="matrix(0.78442356,0,0,0.70598123,111.03427,212.06727)" />
    <path
       transform="matrix(0.78442356,0,0,0.70598123,115.46185,166.90596)"
       d="m 165.83811,85.348671 a 5.1824408,5.7582674 0 1 1 -10.36488,0 5.1824408,5.7582674 0 1 1 10.36488,0 z"
       sodipodi:ry="5.7582674"
       sodipodi:rx="5.1824408"
       sodipodi:cy="85.348671"
       sodipodi:cx="160.65567"
       id="path7947"
       style="fill:#000000;fill-opacity:1;stroke:#000000;stroke-width:1;stroke-miterlimit:4;stroke-opacity:1;stroke-dasharray:none;stroke-dashoffset:0"
       sodipodi:type="arc" />
    <path
       sodipodi:type="arc"
       style="fill:#000000;fill-opacity:1;stroke:#000000;stroke-width:1;stroke-miterlimit:4;stroke-opacity:1;stroke-dasharray:none;stroke-dashoffset:0"
       id="path7949"
       sodipodi:cx="160.65567"
       sodipodi:cy="85.348671"
       sodipodi:rx="5.1824408"
       sodipodi:ry="5.7582674"
       d="m 165.83811,85.348671 a 5.1824408,5.7582674 0 1 1 -10.36488,0 5.1824408,5.7582674 0 1 1 10.36488,0 z"
       transform="matrix(0.00301398,0.78441776,-0.70597602,0.00271259,313.62602,262.32186)" />
    <path
       transform="matrix(0.00301398,0.78441776,-0.70597602,0.00271259,350.84064,265.99818)"
       d="m 165.83811,85.348671 a 5.1824408,5.7582674 0 1 1 -10.36488,0 5.1824408,5.7582674 0 1 1 10.36488,0 z"
       sodipodi:ry="5.7582674"
       sodipodi:rx="5.1824408"
       sodipodi:cy="85.348671"
       sodipodi:cx="160.65567"
       id="path7951"
       style="fill:#000000;fill-opacity:1;stroke:#000000;stroke-width:1;stroke-miterlimit:4;stroke-opacity:1;stroke-dasharray:none;stroke-dashoffset:0"
       sodipodi:type="arc" />
    <path
       sodipodi:type="arc"
       style="fill:#000000;fill-opacity:1;stroke:#000000;stroke-width:1;stroke-miterlimit:4;stroke-opacity:1;stroke-dasharray:none;stroke-dashoffset:0"
       id="path7953"
       sodipodi:cx="160.65567"
       sodipodi:cy="85.348671"
       sodipodi:rx="5.1824408"
       sodipodi:ry="5.7582674"
       d="m 165.83811,85.348671 a 5.1824408,5.7582674 0 1 1 -10.36488,0 5.1824408,5.7582674 0 1 1 10.36488,0 z"
       transform="matrix(0.00301398,0.78441776,-0.70597602,0.00271259,394.39329,270.69838)" />
    <path
       transform="matrix(0.00301398,0.78441776,-0.70597602,0.00271259,438.09108,274.21881)"
       d="m 165.83811,85.348671 a 5.1824408,5.7582674 0 1 1 -10.36488,0 5.1824408,5.7582674 0 1 1 10.36488,0 z"
       sodipodi:ry="5.7582674"
       sodipodi:rx="5.1824408"
       sodipodi:cy="85.348671"
       sodipodi:cx="160.65567"
       id="path7955"
       style="fill:#000000;fill-opacity:1;stroke:#000000;stroke-width:1;stroke-miterlimit:4;stroke-opacity:1;stroke-dasharray:none;stroke-dashoffset:0"
       sodipodi:type="arc" />
    <path
       transform="matrix(0.00301398,0.78441776,-0.70597602,0.00271259,741.77291,289.77285)"
       d="m 165.83811,85.348671 a 5.1824408,5.7582674 0 1 1 -10.36488,0 5.1824408,5.7582674 0 1 1 10.36488,0 z"
       sodipodi:ry="5.7582674"
       sodipodi:rx="5.1824408"
       sodipodi:cy="85.348671"
       sodipodi:cx="160.65567"
       id="path7957"
       style="fill:#000000;fill-opacity:1;stroke:#000000;stroke-width:1;stroke-miterlimit:4;stroke-opacity:1;stroke-dasharray:none;stroke-dashoffset:0"
       sodipodi:type="arc" />
    <path
       sodipodi:type="arc"
       style="fill:#000000;fill-opacity:1;stroke:#000000;stroke-width:1;stroke-miterlimit:4;stroke-opacity:1;stroke-dasharray:none;stroke-dashoffset:0"
       id="path7959"
       sodipodi:cx="160.65567"
       sodipodi:cy="85.348671"
       sodipodi:rx="5.1824408"
       sodipodi:ry="5.7582674"
       d="m 165.83811,85.348671 a 5.1824408,5.7582674 0 1 1 -10.36488,0 5.1824408,5.7582674 0 1 1 10.36488,0 z"
       transform="matrix(0.00301398,0.78441776,-0.70597602,0.00271259,778.98753,293.89194)" />
    <path
       transform="matrix(0.00301398,0.78441776,-0.70597602,0.00271259,822.09743,299.03489)"
       d="m 165.83811,85.348671 a 5.1824408,5.7582674 0 1 1 -10.36488,0 5.1824408,5.7582674 0 1 1 10.36488,0 z"
       sodipodi:ry="5.7582674"
       sodipodi:rx="5.1824408"
       sodipodi:cy="85.348671"
       sodipodi:cx="160.65567"
       id="path7961"
       style="fill:#000000;fill-opacity:1;stroke:#000000;stroke-width:1;stroke-miterlimit:4;stroke-opacity:1;stroke-dasharray:none;stroke-dashoffset:0"
       sodipodi:type="arc" />
    <path
       sodipodi:type="arc"
       style="fill:#000000;fill-opacity:1;stroke:#000000;stroke-width:1;stroke-miterlimit:4;stroke-opacity:1;stroke-dasharray:none;stroke-dashoffset:0"
       id="path7963"
       sodipodi:cx="160.65567"
       sodipodi:cy="85.348671"
       sodipodi:rx="5.1824408"
       sodipodi:ry="5.7582674"
       d="m 165.83811,85.348671 a 5.1824408,5.7582674 0 1 1 -10.36488,0 5.1824408,5.7582674 0 1 1 10.36488,0 z"
       transform="matrix(0.00301398,0.78441776,-0.70597602,0.00271259,865.79522,302.99809)" />
    <path
       sodipodi:type="arc"
       style="fill:#000000;fill-opacity:1;stroke:#000000;stroke-width:1;stroke-miterlimit:4;stroke-opacity:1;stroke-dasharray:none;stroke-dashoffset:0"
       id="path7965"
       sodipodi:cx="160.65567"
       sodipodi:cy="85.348671"
       sodipodi:rx="5.1824408"
       sodipodi:ry="5.7582674"
       d="m 165.83811,85.348671 a 5.1824408,5.7582674 0 1 1 -10.36488,0 5.1824408,5.7582674 0 1 1 10.36488,0 z"
       transform="matrix(0.00301398,0.78441776,-0.70597602,0.00271259,334.8784,71.050443)" />
    <path
       transform="matrix(0.00301398,0.78441776,-0.70597602,0.00271259,374.74956,75.169536)"
       d="m 165.83811,85.348671 a 5.1824408,5.7582674 0 1 1 -10.36488,0 5.1824408,5.7582674 0 1 1 10.36488,0 z"
       sodipodi:ry="5.7582674"
       sodipodi:rx="5.1824408"
       sodipodi:cy="85.348671"
       sodipodi:cx="160.65567"
       id="path7967"
       style="fill:#000000;fill-opacity:1;stroke:#000000;stroke-width:1;stroke-miterlimit:4;stroke-opacity:1;stroke-dasharray:none;stroke-dashoffset:0"
       sodipodi:type="arc" />
    <path
       sodipodi:type="arc"
       style="fill:#000000;fill-opacity:1;stroke:#000000;stroke-width:1;stroke-miterlimit:4;stroke-opacity:1;stroke-dasharray:none;stroke-dashoffset:0"
       id="path7969"
       sodipodi:cx="160.65567"
       sodipodi:cy="85.348671"
       sodipodi:rx="5.1824408"
       sodipodi:ry="5.7582674"
       d="m 165.83811,85.348671 a 5.1824408,5.7582674 0 1 1 -10.36488,0 5.1824408,5.7582674 0 1 1 10.36488,0 z"
       transform="matrix(0.00301398,0.78441776,-0.70597602,0.00271259,415.20292,78.69339)" />
    <path
       transform="matrix(0.00301398,0.78441776,-0.70597602,0.00271259,461.55725,82.061891)"
       d="m 165.83811,85.348671 a 5.1824408,5.7582674 0 1 1 -10.36488,0 5.1824408,5.7582674 0 1 1 10.36488,0 z"
       sodipodi:ry="5.7582674"
       sodipodi:rx="5.1824408"
       sodipodi:cy="85.348671"
       sodipodi:cx="160.65567"
       id="path7971"
       style="fill:#000000;fill-opacity:1;stroke:#000000;stroke-width:1;stroke-miterlimit:4;stroke-opacity:1;stroke-dasharray:none;stroke-dashoffset:0"
       sodipodi:type="arc" />
    <path
       transform="matrix(0.00301398,0.78441776,-0.70597602,0.00271259,759.04047,100.27247)"
       d="m 165.83811,85.348671 a 5.1824408,5.7582674 0 1 1 -10.36488,0 5.1824408,5.7582674 0 1 1 10.36488,0 z"
       sodipodi:ry="5.7582674"
       sodipodi:rx="5.1824408"
       sodipodi:cy="85.348671"
       sodipodi:cx="160.65567"
       id="path7973"
       style="fill:#000000;fill-opacity:1;stroke:#000000;stroke-width:1;stroke-miterlimit:4;stroke-opacity:1;stroke-dasharray:none;stroke-dashoffset:0"
       sodipodi:type="arc" />
    <path
       sodipodi:type="arc"
       style="fill:#000000;fill-opacity:1;stroke:#000000;stroke-width:1;stroke-miterlimit:4;stroke-opacity:1;stroke-dasharray:none;stroke-dashoffset:0"
       id="path7975"
       sodipodi:cx="160.65567"
       sodipodi:cy="85.348671"
       sodipodi:rx="5.1824408"
       sodipodi:ry="5.7582674"
       d="m 165.83811,85.348671 a 5.1824408,5.7582674 0 1 1 -10.36488,0 5.1824408,5.7582674 0 1 1 10.36488,0 z"
       transform="matrix(0.00301398,0.78441776,-0.70597602,0.00271259,798.91163,104.39156)" />
    <path
       transform="matrix(0.00301398,0.78441776,-0.70597602,0.00271259,839.80774,108.20624)"
       d="m 165.83811,85.348671 a 5.1824408,5.7582674 0 1 1 -10.36488,0 5.1824408,5.7582674 0 1 1 10.36488,0 z"
       sodipodi:ry="5.7582674"
       sodipodi:rx="5.1824408"
       sodipodi:cy="85.348671"
       sodipodi:cx="160.65567"
       id="path7977"
       style="fill:#000000;fill-opacity:1;stroke:#000000;stroke-width:1;stroke-miterlimit:4;stroke-opacity:1;stroke-dasharray:none;stroke-dashoffset:0"
       sodipodi:type="arc" />
    <path
       sodipodi:type="arc"
       style="fill:#000000;fill-opacity:1;stroke:#000000;stroke-width:1;stroke-miterlimit:4;stroke-opacity:1;stroke-dasharray:none;stroke-dashoffset:0"
       id="path7979"
       sodipodi:cx="160.65567"
       sodipodi:cy="85.348671"
       sodipodi:rx="5.1824408"
       sodipodi:ry="5.7582674"
       d="m 165.83811,85.348671 a 5.1824408,5.7582674 0 1 1 -10.36488,0 5.1824408,5.7582674 0 1 1 10.36488,0 z"
       transform="matrix(0.00301398,0.78441776,-0.70597602,0.00271259,885.71932,111.28391)" />
  </g>
</svg>
