<?xml version="1.0" encoding="UTF-8" standalone="no"?>
<!-- Created with Inkscape (http://www.inkscape.org/) -->
<svg xmlns:dc="http://purl.org/dc/elements/1.1/" xmlns:cc="http://web.resource.org/cc/" xmlns:rdf="http://www.w3.org/1999/02/22-rdf-syntax-ns#" xmlns:svg="http://www.w3.org/2000/svg" xmlns="http://www.w3.org/2000/svg" xmlns:sodipodi="http://sodipodi.sourceforge.net/DTD/sodipodi-0.dtd" xmlns:inkscape="http://www.inkscape.org/namespaces/inkscape" width="1120" height="180" id="svg2160" sodipodi:version="0.32" inkscape:version="0.45.1" sodipodi:docbase="C:\Documents and Settings\Mike.MIKE-05095BD1E2\Мои документы\Мои рисунки\ПЛ" sodipodi:docname="SSN668.svg" inkscape:output_extension="org.inkscape.output.svg.inkscape" version="1.0">
  <defs id="defs2162"/>
  <sodipodi:namedview inkscape:document-units="mm" pagecolor="#ffffff" bordercolor="#666666" borderopacity="1.0" inkscape:pageopacity="0.0" inkscape:pageshadow="2" inkscape:zoom="0.63698129" inkscape:cx="463.25348" inkscape:cy="-83.682668" inkscape:current-layer="layer1" id="namedview2164" inkscape:window-width="1024" inkscape:window-height="746" inkscape:window-x="0" inkscape:window-y="0" showgrid="true" showguides="true" inkscape:guide-bbox="true" width="1120px" height="180px"/>
  <metadata id="metadata2166">
    <rdf:RDF>
      <cc:Work rdf:about="">
        <dc:format>image/svg+xml</dc:format>
        <dc:type rdf:resource="http://purl.org/dc/dcmitype/StillImage"/>
      </cc:Work>
    </rdf:RDF>
  </metadata>
  <g inkscape:label="Layer 1" inkscape:groupmode="layer" id="layer1">
    <g id="g15981" transform="translate(9.09864, -18.5914)"/>
    <g id="g14354">
      <g id="g14346">
        <path style="fill: rgb(128, 128, 128); fill-opacity: 1; fill-rule: evenodd; stroke: rgb(0, 0, 0); stroke-width: 0.708661; stroke-linecap: butt; stroke-linejoin: miter; stroke-opacity: 1; stroke-miterlimit: 4; stroke-dasharray: none;" d="M 23.871507,118.12909 C 25.284349,124.16008 26.361377,130.38723 25.593843,137.38334 C 25.513066,138.11868 25.170596,138.66608 24.163756,139.15325 C 23.768342,140.14328 24.662033,140.75568 25.593843,140.76667 C 30.599602,140.45903 32.266575,129.53377 32.885564,119.35939" id="path10309" sodipodi:nodetypes="csccc"/>
        <path style="fill: rgb(128, 128, 128); fill-opacity: 1; fill-rule: evenodd; stroke: rgb(0, 0, 0); stroke-width: 0.708661; stroke-linecap: butt; stroke-linejoin: miter; stroke-opacity: 1; stroke-miterlimit: 4; stroke-dasharray: none;" d="M 24.301108,99.01445 C 24.285073,97.866127 24.370993,96.483335 23.490916,95.326728 C 25.949323,96.073362 25.834359,97.521841 26.003175,98.892876" id="path10303" sodipodi:nodetypes="ccc"/>
        <path style="fill: rgb(128, 128, 128); fill-opacity: 1; fill-rule: evenodd; stroke: rgb(0, 0, 0); stroke-width: 0.708661; stroke-linecap: butt; stroke-linejoin: miter; stroke-opacity: 1; stroke-miterlimit: 4; stroke-dasharray: none;" d="M 33.401992,109.01137 L 23.447654,109.73366 L 10.892111,113.93189 L 23.256451,118.2198 L 33.312442,119.14531" id="path5459" sodipodi:nodetypes="ccccc"/>
        <path style="fill: rgb(128, 128, 128); fill-opacity: 1; fill-rule: evenodd; stroke: rgb(0, 0, 0); stroke-width: 0.708661; stroke-linecap: butt; stroke-linejoin: miter; stroke-opacity: 1; stroke-miterlimit: 4; stroke-dasharray: none;" d="M 25.528193,98.930929 C 25.196009,94.882436 25.060473,90.965025 23.407719,86.036147 C 31.119662,91.155853 33.932943,109.11303 32.885564,116.52514" id="path10305" sodipodi:nodetypes="ccc"/>
        <path style="fill: rgb(128, 128, 128); fill-opacity: 1; fill-rule: evenodd; stroke: rgb(0, 0, 0); stroke-width: 0.708661; stroke-linecap: butt; stroke-linejoin: miter; stroke-opacity: 1; stroke-miterlimit: 4; stroke-dasharray: none;" d="M 23.505136,111.35659 C 28.141196,112.24065 30.212659,115.0742 32.885564,117.53013 C 33.536621,109.96227 30.890642,98.638349 23.779536,97.911991 C 24.567037,101.81535 26.087582,105.66109 23.71086,109.77891 C 23.37686,110.35782 23.392895,110.87592 23.505136,111.35659 z " id="path10301" sodipodi:nodetypes="cccsc"/>
        <path style="fill: rgb(128, 128, 128); fill-opacity: 1; fill-rule: evenodd; stroke: rgb(0, 0, 0); stroke-width: 0.708661; stroke-linecap: butt; stroke-linejoin: miter; stroke-opacity: 1; stroke-miterlimit: 4; stroke-dasharray: none;" d="M 23.447654,115.19317 C 27.766959,115.18966 30.742399,116.77388 32.885564,119.34219 C 32.929734,124.3378 32.631736,128.36679 28.357206,130.31533 C 25.952651,129.5077 24.546767,126.70248 23.724172,122.73055 C 24.497151,122.34361 25.352722,121.7689 25.474644,120.51775 C 25.624097,118.98572 24.525589,116.76386 23.447654,115.19317 z " id="path10307" sodipodi:nodetypes="ccccsc"/>
      </g>
      <path sodipodi:nodetypes="cccccc" id="path14297" d="M 96.456827,93.305192 L 83.151903,47.89917 L 56.624648,47.867918 L 57.519852,172.04977 L 86.28194,172.01437 L 96.6922,134.32145" style="fill: rgb(51, 51, 51); fill-opacity: 1; fill-rule: evenodd; stroke: rgb(0, 0, 0); stroke-width: 0.992126; stroke-linecap: butt; stroke-linejoin: miter; stroke-opacity: 1; stroke-miterlimit: 4; stroke-dasharray: none;"/>
      <path sodipodi:nodetypes="ccsscscscscccsssccssscc" d="M 400.49724,165.10959 L 939.57386,165.34239 C 953.10538,165.06409 968.83785,164.48476 981.132,163.56339 C 993.59013,162.62974 1009.718,160.24832 1017.7615,158.81796 C 1031.2598,156.41758 1044.5756,153.23769 1058.2539,149.4625 C 1069.9057,146.24672 1088.495,137.80551 1096.6529,131.11403 C 1101.3005,127.30183 1107.6791,122.06426 1107.6017,114.63703 C 1107.5245,107.35734 1103.673,102.69461 1095.4485,96.829626 C 1093.4869,95.430803 1083.2633,88.987932 1070.1102,83.738006 C 1052.5644,76.734626 1017.1132,69.587394 991.01192,66.875614 C 960.38258,63.69339 939.68307,63.916601 907.93738,63.866077 L 832.32004,63.543755 L 400.06098,63.459015 C 360.34135,63.44888 280.85579,65.047692 252.66005,67.281738 C 244.75599,67.907987 204.23464,73.287919 184.856,76.01083 C 147.7406,81.22595 105.5677,90.003237 93.141639,92.766128 C 81.633778,95.324831 38.079198,106.39493 33.370831,108.97207 L 33.302156,119.21359 C 37.968469,122.0684 67.230952,130.27935 91.602336,135.75243 C 111.95423,140.32282 141.17859,146.54263 151.12264,148.44582 C 199.95345,157.79137 216.95234,158.17744 253.96186,161.65805 C 273.8548,163.5289 299.16556,162.38365 325.26382,163.56748 C 368.50982,164.78149 382.88904,165.14593 400.49724,165.10959 z " style="fill: rgb(51, 51, 51); fill-opacity: 1; fill-rule: evenodd; stroke: rgb(0, 0, 0); stroke-width: 0.992126; stroke-linecap: butt; stroke-linejoin: miter; stroke-opacity: 1; stroke-miterlimit: 4; stroke-dasharray: none;" id="path8339"/>
      <path sodipodi:nodetypes="cccssccscc" id="path12267" d="M 812.59228,63.617151 C 783.4496,64.697688 757.7519,65.162716 729.64329,63.657751 L 729.6808,13.372472 C 729.8469,13.054719 729.95853,12.669984 730.77144,12.567424 C 734.89471,12.047063 740.98596,11.218568 751.14391,10.518742 C 753.47102,10.358428 762.66266,9.4385981 768.34368,9.2346889 L 788.4956,9.3924009 C 790.52168,9.4393544 797.42525,9.8236658 806.13253,10.181959 C 809.20357,10.308328 812.6192,12.906628 812.66247,14.133471 L 812.59228,63.617151 z " style="fill: rgb(51, 51, 51); fill-opacity: 1; fill-rule: evenodd; stroke: rgb(0, 0, 0); stroke-width: 0.992126; stroke-linecap: butt; stroke-linejoin: miter; stroke-opacity: 1; stroke-miterlimit: 4; stroke-dasharray: none;"/>
      <path sodipodi:nodetypes="cszsc" id="path15268" d="M 57.14622,114.24843 C 68.009074,111.44543 80.17132,109.30315 93.900096,109.17155 C 105.04431,109.06266 114.20237,110.91332 113.92132,114.46294 C 113.62786,118.16669 103.36887,119.79015 96.963575,119.75434 C 82.652114,119.67434 67.413986,116.65284 57.14622,114.24843 z " style="fill: none; fill-rule: evenodd; stroke: rgb(0, 0, 0); stroke-width: 0.992126; stroke-linecap: butt; stroke-linejoin: miter; stroke-opacity: 1; stroke-miterlimit: 4; stroke-dasharray: none;"/>
      <path sodipodi:nodetypes="csssscc" id="path16349" d="M 918.99022,64.990573 C 923.15009,65.071501 928.94396,64.99145 931.8241,65.284819 C 935.55467,65.668132 939.81437,67.0028 942.14935,68.564066 C 942.6092,68.871624 942.60345,70.041742 942.14329,70.307853 C 939.70486,71.718245 935.95644,72.646552 931.49857,72.982428 C 929.16269,73.158413 923.26808,73.146097 919.03046,73.234023 L 918.99022,64.990573 z " style="fill: none; fill-rule: evenodd; stroke: rgb(0, 0, 0); stroke-width: 0.992126; stroke-linecap: butt; stroke-linejoin: miter; stroke-opacity: 1; stroke-miterlimit: 4; stroke-dasharray: none;"/>
      <path sodipodi:nodetypes="ccssscccscccsc" d="M 141.85234,83.132159 L 142.99532,89.76623 C 137.41535,90.962036 133.12388,92.171073 121.37368,92.292713 C 119.71791,92.309919 120.42675,90.253225 120.91867,89.73938 C 122.18418,88.417655 124.57935,87.291765 126.72675,86.683907 C 132.41897,85.072494 137.62349,83.973124 141.85234,83.132159 z M 918.81324,64.969547 L 306.61642,65.048448 C 288.61099,65.622177 260.62945,66.335163 246.03481,68.170649 C 231.16305,70.051938 190.2481,74.311888 141.95278,83.102447 M 918.80204,73.257109 L 306.57225,73.599311 C 288.67089,73.958052 269.69403,74.617416 246.15522,76.342331 C 221.89093,78.139107 185.32403,81.411604 143.10242,89.738736" style="fill: none; fill-rule: evenodd; stroke: rgb(0, 0, 0); stroke-width: 0.992126; stroke-linecap: butt; stroke-linejoin: miter; stroke-opacity: 1; stroke-miterlimit: 4; stroke-dasharray: none;" id="path16351"/>
      <path style="fill: none; fill-rule: evenodd; stroke: rgb(0, 0, 0); stroke-width: 0.992126; stroke-linecap: butt; stroke-linejoin: miter; stroke-opacity: 1; stroke-miterlimit: 4; stroke-dasharray: none;" d="M 771.74267,35.737923 C 774.44008,34.659473 784.9051,32.055002 792.74411,32.078237 C 799.96836,32.099445 805.01648,33.549166 805.00831,35.481463 C 805.00075,37.413034 800.59945,38.81913 792.33236,38.88469 C 784.06587,38.950189 775.2055,36.740466 771.74267,35.737923 z " id="path20383" sodipodi:nodetypes="cszsc"/>
      <path sodipodi:nodetypes="ccccccccc" id="rect6480" d="M 961.74641,119.99854 L 1005.4193,119.78841 C 1006.0885,119.78841 1006.6273,120.32729 1006.6273,120.99666 L 1006.6273,125.5266 C 1006.6273,126.19597 1006.0885,126.73485 1005.4193,126.73485 L 961.74641,126.94498 C 961.0769,126.94498 960.53808,126.4061 960.53808,125.73673 L 960.53808,121.20679 C 960.53808,120.53742 961.0769,119.99854 961.74641,119.99854 z " style="fill: none; fill-opacity: 1; stroke: rgb(0, 0, 0); stroke-width: 0.992126; stroke-miterlimit: 4; stroke-dashoffset: 0pt; stroke-opacity: 1; stroke-dasharray: none;"/>
      <path style="fill: none; fill-opacity: 1; stroke: rgb(0, 0, 0); stroke-width: 0.992126; stroke-miterlimit: 4; stroke-dashoffset: 0pt; stroke-opacity: 1; stroke-dasharray: none;" d="M 953.07845,132.10761 L 997.59177,131.47722 C 998.26098,131.47722 998.7998,132.0161 998.7998,132.68547 L 998.7998,137.21541 C 998.7998,137.88478 998.26098,138.42366 997.59177,138.42366 L 953.07845,139.05405 C 952.40894,139.05405 951.87013,138.51517 951.87013,137.8458 L 951.87013,133.31586 C 951.87013,132.64649 952.40894,132.10761 953.07845,132.10761 z " id="path6483" sodipodi:nodetypes="ccccccccc"/>
    </g>
  </g>
</svg>