<?xml version="1.0" encoding="UTF-8" standalone="no"?>
<!-- Inkscape 0.48.0 r9654 (Aug 16 2010)#forces.emf -->

<svg
   xmlns:dc="http://purl.org/dc/elements/1.1/"
   xmlns:cc="http://creativecommons.org/ns#"
   xmlns:rdf="http://www.w3.org/1999/02/22-rdf-syntax-ns#"
   xmlns:svg="http://www.w3.org/2000/svg"
   xmlns="http://www.w3.org/2000/svg"
   xmlns:sodipodi="http://sodipodi.sourceforge.net/DTD/sodipodi-0.dtd"
   xmlns:inkscape="http://www.inkscape.org/namespaces/inkscape"
   version="1.0"
   width="297mm"
   height="210mm"
   id="0"
   inkscape:version="0.48.0 r9654"
   sodipodi:docname="forces_inv.svg">
  <metadata
     id="metadata3093">
    <rdf:RDF>
      <cc:Work
         rdf:about="">
        <dc:format>image/svg+xml</dc:format>
        <dc:type
           rdf:resource="http://purl.org/dc/dcmitype/StillImage" />
        <dc:title></dc:title>
      </cc:Work>
    </rdf:RDF>
  </metadata>
  <defs
     id="defs3091" />
  <sodipodi:namedview
     pagecolor="#000000"
     bordercolor="#666666"
     borderopacity="1"
     objecttolerance="10"
     gridtolerance="10"
     guidetolerance="10"
     inkscape:pageopacity="0.18431373"
     inkscape:pageshadow="2"
     inkscape:window-width="1145"
     inkscape:window-height="845"
     id="namedview3089"
     showgrid="false"
     inkscape:zoom="0.41930159"
     inkscape:cx="399.68481"
     inkscape:cy="216.30605"
     inkscape:window-x="0"
     inkscape:window-y="0"
     inkscape:window-maximized="0"
     inkscape:current-layer="0" />
  <path
     inkscape:connector-curvature="0"
     d="m 972.14171,599.56299 c -74.69291,-1.48819 -359.29133,-1.80709 -762.51967,-0.8504 -257.775582,0.6378 -271.417314,0.60237 -60.66141,-0.1063 149.49212,-0.53149 349.12204,-1.41732 443.62203,-1.94881 164.87008,-0.9567 383.81102,0.56692 447.83854,3.11811 l 23.1733,0.92126 -17.9646,0 c -9.8504,-0.0354 -42.9449,-0.5315 -73.48819,-1.13386 z M 1034.5393,467.07874 C 829.41731,454.1811 768.36613,453.40157 555.83857,460.80708 c -134.11417,4.67717 -152.11417,5.10237 -237.6496,5.88189 -53.5748,0.49607 -116.07874,0.2126 -167.52756,-0.81496 -82.311018,-1.59449 -232.37007,-2.09055 -260.32676,-0.85039 -13.5,0.60236 -13.96063,0.56693 -4.67717,-0.46063 15.767719,-1.80709 171.389763,-1.77166 265.85433,0.0354 129.68503,2.48032 237.7559,1.02756 421.4055,-5.66929 132.34252,-4.8189 220.78346,-5.35039 303.48425,-1.84252 41.77559,1.77165 185.20864,10.02756 186.12994,10.73622 0.9921,0.70866 -8.4685,0.46063 -27.9922,-0.74409 z m 1.7008,-63.77953 c -12.2244,-1.59449 -41.84642,-5.77559 -65.83461,-9.28347 -127.02755,-18.67322 -198.42519,-19.77165 -364.99605,-5.77559 -64.66536,5.42126 -99.56693,7.93701 -139.32284,9.9567 -169.65354,8.6811 -221.24409,8.85826 -322.26377,1.27559 C 37.381889,391.5 -33.625984,389.51575 -84.188975,393.09449 c -16.334645,1.16929 -32.102365,2.44488 -35.043305,2.87007 -2.94095,0.4252 -4.88976,0.35433 -4.32284,-0.1063 0.60237,-0.46063 10.59449,-1.80708 22.25197,-2.97637 16.192916,-1.62992 34.157482,-2.12599 76.712599,-2.12599 58.003936,0 77.279526,0.81496 160.724411,6.90945 106.65354,7.75984 142.97243,8.00788 276.94487,1.84252 70.54724,-3.25984 107.7874,-5.59842 170.11417,-10.73622 195.62598,-16.15748 254.09055,-15.48425 390.6496,4.42913 25.86614,3.75591 56.1614,7.97245 67.3228,9.38977 11.1614,1.38189 20.7284,2.83464 21.2244,3.18897 1.3465,0.99213 -1.5944,0.70867 -26.1496,-2.48031 z m 8.0788,-26.61024 c -7.7953,-1.70078 -31.252,-7.40551 -52.1575,-12.68504 -88.65354,-22.35826 -117.46063,-26.96456 -174.75591,-27.95669 -31.60629,-0.53149 -42.37795,-0.2126 -67.53543,2.01969 -16.44094,1.48819 -42.59055,3.5433 -58.11023,4.6063 -40.00394,2.72834 -52.08662,4.03937 -82.13386,8.8937 -58.6063,9.42519 -100.13385,13.6063 -151.22834,15.09448 -14.10236,0.4252 -44.11417,2.16142 -66.68504,3.82678 -92.72834,6.94488 -142.58267,8.32677 -182.09055,4.92519 -22.14567,-1.87795 -32.91732,-3.33071 -74.33858,-10.06299 -29.48031,-4.74803 -58.783462,-7.90157 -94.039366,-10.02756 -17.858268,-1.09842 -43.263779,-2.87008 -56.409448,-3.9685 -43.724409,-3.64961 -66.437006,-2.55118 -96.271656,4.7126 -5.95275,1.45275 -11.19685,2.33858 -11.69291,1.98425 -1.09842,-0.81496 23.846458,-6.41339 37.84252,-8.50394 12.401575,-1.87795 44.716535,-1.91338 63.35433,-0.0709 7.476377,0.74409 31.6771643,2.48031 53.751967,3.89763 51.661416,3.25985 69.980313,5.2441 112.854333,12.18898 54.42519,8.7874 65.40944,9.77953 111.9685,9.81496 41.88189,0.0709 71.8937,-1.27559 126.53149,-5.66929 16.90157,-1.34646 51.90945,-3.29528 77.74016,-4.35827 59.20866,-2.37401 80.18503,-4.57087 156.47243,-16.26378 19.41733,-3.01181 43.86614,-5.52756 73.52362,-7.65354 24.44882,-1.77166 53.64567,-4.03937 64.87796,-5.10236 11.26771,-1.02756 33.80314,-1.91339 50.06692,-1.91339 59.59843,0 90.8504,4.46457 169.68898,24.23622 43.51181,10.91339 62.29131,15.37795 76.92521,18.35433 5.1732,1.02756 9.7441,2.12599 10.1338,2.40945 1.63,1.16929 -4.9606,0.17717 -18.2834,-2.72835 z m 6.4488,-9.31889 c -6.0945,-1.91339 -29.5866,-9.77953 -52.12205,-17.43307 -67.35827,-22.8189 -107.2559,-33.59056 -132.05905,-35.64567 -28.91339,-2.40945 -70.22835,-4.07481 -80.18504,-3.22441 -5.49213,0.46063 -21.93307,3.11811 -36.5315,5.91732 -25.75984,4.88976 -27.60236,5.06693 -66.6496,6.09449 -43.33465,1.13386 -42.02362,0.95669 -67.9252,8.71653 -9.60236,2.87008 -21.93307,5.84646 -27.35433,6.59055 -5.42126,0.70867 -20.65748,3.22441 -33.80315,5.563 -39.8622,7.05118 -44.1496,7.37007 -86.91732,6.51968 -38.16141,-0.77953 -39.57874,-0.70866 -64.94881,2.87008 -14.27953,2.01968 -42.09449,4.85433 -61.83071,6.30709 -19.77166,1.45275 -48.22441,3.57874 -63.28347,4.71259 -23.27952,1.77166 -30.93307,1.84252 -51.41338,0.56693 -30.04724,-1.87795 -43.58268,-4.25196 -80.22047,-14.10236 -36.95669,-9.95669 -52.370079,-12.29527 -91.452755,-13.92519 -45.1417313,-1.91339 -64.594487,-4.03937 -87.271652,-9.60237 -16.795275,-4.11023 -21.791338,-4.81889 -34.97244,-4.85433 -14.279527,0 -16.299212,0.3189 -28.204724,4.64173 -7.051179,2.55119 -16.299209,6.20079 -20.515749,8.11418 -4.25197,1.91338 -6.69685,2.58661 -5.45669,1.45275 1.20472,-1.09842 10.34646,-5.03149 20.23228,-8.75196 17.858269,-6.66142 18.141734,-6.73229 33.661419,-6.73229 13.606298,0 18.248031,0.6378 35.32677,4.85433 22.748031,5.59843 41.9173224,7.68898 87.200786,9.60236 38.19685,1.59449 56.622045,4.28741 87.165355,12.72048 57.3307,15.83858 85.67716,18.56693 146.19684,13.99606 19.73622,-1.48819 47.83465,-3.57874 62.39764,-4.67717 14.56299,-1.09842 38.19685,-3.61417 52.51181,-5.63385 25.44095,-3.54331 26.85827,-3.61418 66.64961,-2.87008 36.95669,0.67323 42.16535,0.49606 56.94094,-1.87796 51.98031,-8.29133 78.44882,-13.2874 89.3622,-16.79527 22.74803,-7.26378 25.40551,-7.61811 67.9252,-8.6811 35.5748,-0.92126 42.09449,-1.41733 57.25984,-4.46457 33.20079,-6.59055 37.77165,-7.22835 54.70866,-7.37008 26.39764,-0.28346 65.05512,1.73622 82.06299,4.21654 21.29528,3.11811 69.20079,16.61811 117.95669,33.20078 40.74806,13.88977 63.46066,21.18898 65.58666,21.15355 3.3661,-0.0709 -29.6221,-14.27953 -58.1811,-25.05118 -18.17721,-6.83859 -36.88587,-14.1378 -41.59847,-16.19292 -4.7126,-2.05512 -14.0315,-5.24409 -20.76378,-7.08661 -6.69685,-1.80709 -23.2441,-6.90945 -36.74409,-11.30315 l -24.55512,-7.97244 -27.35433,-0.0709 c -19.45276,-0.0709 -30.54331,-0.70866 -38.48032,-2.19685 -6.09448,-1.16929 -14.70472,-2.12598 -19.13385,-2.12598 -9.9567,-0.0354 -30.86221,4.78346 -50.0315,11.48031 -8.00787,2.79922 -17.04331,5.38583 -20.12598,5.74016 -3.08268,0.3189 -19.80709,-0.0709 -37.20473,-0.88583 -50.84645,-2.44488 -49.35826,-2.51574 -58.1811,2.62205 -8.96457,5.17323 -16.44094,9.88583 -20.30315,12.79134 -1.98425,1.48819 -7.15748,2.23228 -18.95669,2.69291 -13.03937,0.56693 -21.68504,1.94882 -43.61811,7.01575 -16.29921,3.75591 -32.52756,6.66142 -40.25197,7.19291 -15.12992,1.02756 -39.3307,-0.88582 -57.437,-4.57086 -14.4567,-2.94095 -14.98819,-2.87008 -43.58268,4.00393 -10.94882,2.62205 -24.02362,5.10237 -29.05512,5.49213 -5.03149,0.38976 -21.08267,1.59449 -35.6811,2.65748 -51.48425,3.79134 -59.13779,4.5 -68.38582,6.34252 -16.05119,3.15354 -55.66536,1.66535 -84.61418,-3.18898 -4.67716,-0.77952 -21.61417,-6.27165 -37.59448,-12.18897 C 108.2126,328.6063 104.66929,328.03937 46.381889,326.79921 -12.047244,325.59449 -18.070866,324.63779 -39.259842,313.44094 -45.070865,310.3937 -52.547243,307.02756 -55.948818,306 c -7.901574,-2.44488 -20.055117,-2.40945 -28.027558,0.0354 -6.307087,1.94882 -21.614174,9.95669 -29.515744,15.48425 -2.33859,1.62992 -5.81103,3.54331 -7.68898,4.21654 -4.21654,1.55905 5.06693,-4.53544 18.81496,-12.36614 13.393701,-7.61811 22.074803,-10.45276 32.102362,-10.48819 9.779527,-0.0354 16.511811,1.87795 29.763779,8.53937 24.519684,12.25984 28.700787,12.93307 86.881888,14.13779 58.145671,1.20473 62.114171,1.84252 101.444881,16.44095 15.34252,5.70472 28.27559,10.06299 28.77165,9.70866 2.01969,-1.48819 -12.04724,-9.6378 -19.98425,-11.58662 -5.95276,-1.45275 -11.76378,-4.42913 -19.20472,-9.74409 -13.00394,-9.3189 -21.22441,-12.29528 -33.90945,-12.33071 -5.208663,-0.0354 -13.181104,-0.95669 -17.645671,-2.09055 -5.811024,-1.45276 -10.169291,-1.77165 -15.271653,-1.06299 -3.897638,0.56693 -12.507874,1.06299 -19.098425,1.09842 -6.767717,0.0709 -15.803149,1.09843 -20.834645,2.40945 -7.192914,1.84252 -10.133858,2.01969 -15.377953,0.9567 -3.57874,-0.7441 -11.0551177,-1.34646 -16.5826766,-1.34646 -21.3661414,0 -31.0748024,-4.99606 -42.9448814,-21.93307 -3.755905,-5.38583 -8.149606,-10.70079 -9.744094,-11.76378 -1.984252,-1.34646 -7.405512,-2.16142 -16.511811,-2.55118 l -13.535432,-0.5315 -6.094488,5.49213 c -3.366142,3.01181 -7.157481,7.01575 -8.433071,8.85826 -2.551179,3.64961 -13.074799,12.29528 -21.047239,17.32678 -2.72835,1.73622 -0.7441,-0.24804 4.42913,-4.3937 5.17323,-4.11024 10.38189,-7.97245 11.55118,-8.53937 1.16929,-0.56693 2.12598,-1.66536 2.12598,-2.44489 0,-1.52362 13.11024,-14.91732 16.122051,-16.47637 2.940945,-1.52363 23.598425,-0.7441 29.19685,1.13385 3.826771,1.27559 7.051181,4.46457 12.826771,12.64961 12.472441,17.75197 20.622047,21.89764 43.08661344,21.89764 6.09448806,0 13.60629856,0.63779 16.65354256,1.45275 4.748032,1.20473 6.980315,0.99213 14.811024,-1.38189 7.334645,-2.26771 10.913385,-2.65748 17.751968,-1.94881 5.279527,0.53149 11.834645,0.24803 17.149606,-0.77953 7.440945,-1.41733 10.098425,-1.34646 19.523621,0.53149 5.988189,1.1693 14.846453,2.12599 19.665353,2.12599 12.29528,0 18.67323,2.37401 31.8189,11.87008 8.2559,5.95275 13.88976,8.85826 20.05512,10.38189 8.07874,1.98425 24.09448,11.30315 22.57086,13.14567 -0.77953,0.92126 9.7441,0.56692 20.79921,-0.70867 5.91733,-0.67322 8.18504,-0.24803 13.64174,2.48032 7.8307,3.93307 10.13385,4.03937 16.86614,0.74409 7.01575,-3.437 11.23228,-3.15354 18.77952,1.27559 3.54331,2.09056 7.86615,3.79134 9.5315,3.79134 1.70079,0 6.34252,-2.83464 10.31102,-6.34252 7.54725,-6.59055 10.87796,-7.44094 19.66536,-4.99606 3.8622,1.09843 6.20078,0.74409 13.85433,-2.12598 l 9.17716,-3.43701 7.68898,2.76378 c 9.74409,3.50787 11.30315,3.47244 20.65748,-0.56693 7.15748,-3.11811 8.50394,-3.29528 19.94882,-2.33858 21.43701,1.73622 24.34252,1.48818 31.42913,-2.72835 3.57874,-2.12598 10.48819,-4.8189 15.34252,-6.02362 6.55512,-1.59449 10.80709,-3.79134 16.26378,-8.36221 9.85039,-8.3622 12.79134,-8.18504 21.7559,1.27559 8.36221,8.82284 12.08268,10.62992 19.70079,9.60237 3.25984,-0.46063 8.5748,0.0354 13.0748,1.20472 4.99607,1.34646 10.02756,1.73622 14.98819,1.20472 4.07481,-0.46063 11.26772,-0.14173 15.94488,0.70867 8.32678,1.45275 8.75197,1.41732 15.66142,-2.40945 9.17717,-5.06693 15.87402,-7.44095 23.49213,-8.36221 3.36614,-0.38976 10.24015,-2.97638 15.27165,-5.74016 11.33858,-6.27165 15.94488,-6.37795 24.51968,-0.53149 3.64961,2.44488 6.27166,4.7126 5.88189,5.03149 -0.42519,0.28347 -3.3307,-1.45275 -6.51968,-3.8622 -6.83858,-5.20866 -12.64961,-5.66929 -19.84252,-1.59449 -2.69291,1.52362 -5.35039,3.18898 -5.84646,3.72047 -1.55905,1.62993 -13.32283,4.8189 -17.71653,4.8189 -2.30315,0 -7.54725,1.91339 -11.65748,4.21654 -4.0748,2.33858 -8.96457,4.85433 -10.80709,5.66929 -6.66141,2.87008 1.80709,1.48819 25.33465,-4.11024 12.93307,-3.08267 27.92126,-5.95275 33.30708,-6.41338 5.42126,-0.46063 12.75591,-1.063 16.33465,-1.34646 11.72834,-0.95669 11.97638,-1.13386 23.35039,-20.12598 10.16929,-16.93701 16.01575,-23.3504 21.25984,-23.3504 2.55118,0 11.26772,6.05906 11.26772,7.83071 0,2.48032 11.26772,12.36614 14.10236,12.36614 1.73622,0 6.02362,-1.41732 9.46063,-3.15354 3.47244,-1.73622 7.97244,-3.15354 9.99213,-3.15354 2.01968,0 10.77165,2.58661 19.45275,5.74015 8.68111,3.18898 17.36221,5.59843 19.31103,5.38583 3.18897,-0.35433 15.41338,-10.06299 19.55905,-15.55512 0.88583,-1.16929 6.02362,-3.18897 11.44488,-4.5 5.42126,-1.31102 12.54331,-4.14567 15.83858,-6.30708 8.92914,-5.7756 12.68504,-6.44882 24.90945,-4.5 13.85433,2.23228 17.96457,3.61417 25.01575,8.32677 10.24016,6.80315 12.54331,6.66141 30.8622,-1.91339 14.4567,-6.76772 22.64174,-5.56299 44.85827,6.66142 13.57087,7.44094 37.34646,15.34252 49.6063,16.40551 9.07087,0.77953 9.1063,0.81496 26.64567,14.63386 4.25197,3.33071 7.54724,4.6063 13.67716,5.31496 9.9567,1.09842 13.00397,2.23228 22.00397,8.32677 4.3937,2.97638 9.6023,5.10236 13.6771,5.66929 10.0276,1.34646 15.0945,3.72047 23.1378,10.87795 4.0394,3.57874 9.4961,8.22048 12.1536,10.27559 8.0078,6.23623 5.3149,7.51182 -7.3701,3.47245 z m -3.3307,-11.37402 c -7.937,-7.40551 -12.8622,-9.88583 -22.8898,-11.40945 -6.5197,-0.99212 -10.8425,-2.69291 -16.0157,-6.30709 -8.92916,-6.23622 -11.44491,-7.19291 -21.6142,-8.29133 -8.3622,-0.9567 -12.15354,-2.94095 -21.72047,-11.48032 -6.09449,-5.45669 -11.44488,-7.68897 -20.69291,-8.64567 -11.58662,-1.20472 -34.97244,-9.28346 -48.79134,-16.83071 -13.14567,-7.22834 -21.9685,-10.41732 -28.73622,-10.41732 -5.0315,0 -15.16535,3.57874 -21.25984,7.51181 -8.04331,5.20866 -16.68898,4.64173 -25.93701,-1.70079 -6.30709,-4.32283 -11.40945,-6.05905 -23.27953,-7.90157 -12.437,-1.91339 -15.69685,-1.27559 -25.26378,5.06693 -3.7559,2.48031 -9.14173,4.85433 -11.94094,5.27953 -10.06299,1.52362 -11.19685,2.12598 -19.16929,9.85039 -4.42914,4.2874 -9.24803,8.50394 -10.70079,9.35433 -4.67716,2.72835 -0.28346,1.70079 14.06693,-3.29527 18.77953,-6.55512 40.64173,-11.51575 50.49213,-11.51575 4.42913,0.0354 13.03937,0.95669 19.13385,2.12598 7.86614,1.45276 19.16929,2.09055 38.48032,2.16142 26.1496,0.14173 27.85039,0.28346 38.48031,3.72047 6.09449,1.98425 22.21654,6.94488 35.7874,11.05512 24.34252,7.37008 33.66142,10.55905 43.68898,14.91732 2.83464,1.24016 20.48031,8.04331 39.189,15.12992 18.7441,7.12205 36.0708,13.99607 38.4803,15.27166 6.3779,3.437 6.4488,2.16141 0.2126,-3.64961 z m -799.01575,0.49606 c -2.62204,-1.70078 -5.88189,-3.11811 -7.19291,-3.11811 -3.40157,0 -14.49212,4.07481 -14.49212,5.31496 0,0.56693 5.95275,0.99213 13.25196,0.99213 l 13.25197,-0.0354 -4.8189,-3.15355 z m -34.33464,-1.20472 c -6.94488,-3.47244 -12.01181,-3.93307 -19.31102,-1.70079 -4.64174,1.41732 -4.42914,1.52362 6.30708,3.01181 6.12992,0.8504 12.96851,1.59449 15.20079,1.70079 3.64961,0.14173 3.40157,-0.2126 -2.19685,-3.01181 z m 75.89764,0 c 8.92913,-1.02756 19.31102,-1.87795 23.03149,-1.87795 7.19291,-0.0354 45.28347,-3.01181 64.45276,-5.06693 6.27165,-0.67323 19.38189,-3.18898 29.09055,-5.563 25.15748,-6.20078 26.4685,-6.30708 42.48425,-3.25984 19.80708,3.72047 41.13779,5.31496 57.22441,4.2874 l 13.67716,-0.85039 -8.5748,-1.73622 c -4.9252,-0.95669 -11.94095,-1.38189 -16.61811,-0.95669 -5.31496,0.46063 -10.94882,0 -16.61811,-1.38189 -4.7126,-1.16929 -10.13386,-1.73622 -12.04725,-1.27559 -7.44094,1.73622 -12.61417,-0.5315 -20.51574,-8.8937 -4.25197,-4.46457 -8.8937,-8.14961 -10.38189,-8.14961 -2.69292,-0.0354 -5.49213,1.70079 -13.99607,8.5748 -2.62204,2.12599 -8.50393,4.74803 -13.0748,5.88189 -4.6063,1.13386 -10.55905,3.47244 -13.25197,5.17323 -7.51181,4.78347 -14.56299,6.05906 -24.62598,4.46457 -13.67717,-2.19685 -22.1811,-1.66536 -29.79921,1.80708 -8.39764,3.82678 -11.30315,3.89764 -20.65748,0.4252 l -7.33465,-2.69291 -8.7874,3.40157 c -7.83071,3.01181 -9.46063,3.22441 -14.74016,1.94882 -8.11417,-1.98425 -12.57874,-0.85039 -18.46063,4.64173 -4.96063,4.64174 -4.96063,4.67717 -0.85039,3.79134 2.26772,-0.46063 11.44488,-1.70079 20.37402,-2.69291 z m 334.91337,-39.54331 c 9.38977,-6.16535 19.13386,-7.72441 33.51969,-5.42126 8.82283,1.41733 69.76771,2.83465 64.09842,1.48819 -2.33858,-0.56693 -10.77165,-3.36614 -18.70866,-6.27165 -7.93701,-2.87008 -16.08661,-5.20866 -18.03543,-5.20866 -1.98425,0 -6.23622,1.41732 -9.38976,3.15354 -8.71654,4.74803 -12.40158,4.14567 -19.52363,-3.18898 -3.36614,-3.47244 -6.12992,-6.76771 -6.12992,-7.33464 0,-0.56693 -1.91338,-2.37402 -4.2874,-4.00394 -7.58268,-5.27953 -12.40157,-1.34646 -25.47638,20.83465 -2.48031,4.1811 -5.70472,9.28346 -7.15748,11.37401 l -2.69291,3.79134 4.85433,-3.25984 c 2.65748,-1.80709 6.66142,-4.46457 8.92913,-5.95276 z"
     style="fill:#ffffff;fill-opacity:1;fill-rule:nonzero;stroke:#ffffff;stroke-opacity:1"
     id="2" />
  <path
     inkscape:connector-curvature="0"
     d="M 257.38582,474.23622 377.39763,448.51181"
     style="fill:none;stroke:#ffffff;stroke-width:1.98425198px;stroke-linecap:butt;stroke-linejoin:miter;stroke-miterlimit:4;stroke-opacity:1;stroke-dasharray:none"
     id="3" />
  <path
     inkscape:connector-curvature="0"
     d="m 357.83858,452.72834 -6.16536,9.49607 25.72441,-13.7126 -29.05512,-1.94882 9.49607,6.16535 z"
     style="fill:#000000;fill-opacity:1;fill-rule:evenodd;stroke:#ffffff;stroke-width:1.98425198px;stroke-linecap:butt;stroke-linejoin:miter;stroke-miterlimit:4;stroke-opacity:1;stroke-dasharray:none"
     id="4" />
  <path
     inkscape:connector-curvature="0"
     d="m 307.13385,565.33464 93.18898,-72.03543"
     style="fill:none;stroke:#ffffff;stroke-width:1.98425198px;stroke-linecap:butt;stroke-linejoin:miter;stroke-miterlimit:4;stroke-opacity:1;stroke-dasharray:none"
     id="5" />
  <path
     inkscape:connector-curvature="0"
     d="m 384.48424,505.52362 -1.41732,11.23228 17.25591,-23.45669 -27.03544,10.77165 11.19685,1.45276 z"
     style="fill:#000000;fill-opacity:1;fill-rule:evenodd;stroke:#ffffff;stroke-width:1.98425198px;stroke-linecap:butt;stroke-linejoin:miter;stroke-miterlimit:4;stroke-opacity:1;stroke-dasharray:none"
     id="6" />
  <path
     inkscape:connector-curvature="0"
     d="m 661.96062,159.59055 c 138.50787,46.31102 155.58661,216.99212 155.58661,216.99212 l 0.1063,37.27559"
     style="fill:none;stroke:#ffffff;stroke-width:2.97637796px;stroke-linecap:butt;stroke-linejoin:miter;stroke-miterlimit:4;stroke-opacity:1;stroke-dasharray:none"
     id="7" />
  <path
     inkscape:connector-curvature="0"
     d="m 817.58266,383.88189 -12.04724,-11.97638 12.11811,41.95275 11.87007,-42.02362 -11.94094,12.04725 z"
     style="fill:#000000;fill-opacity:1;fill-rule:evenodd;stroke:#ffffff;stroke-width:2.97637796px;stroke-linecap:butt;stroke-linejoin:miter;stroke-miterlimit:4;stroke-opacity:1;stroke-dasharray:none"
     id="8" />
  <path
     inkscape:connector-curvature="0"
     d="m 781.61809,180.95669 0,-17.18504 2.26772,0 0,7.05118 8.92913,0 0,-7.05118 2.26772,0 0,17.18504 -2.26772,0 0,-8.11417 -8.92913,0 0,8.11417 z"
     style="fill:#000000;fill-opacity:1;fill-rule:nonzero;stroke:#ffffff;stroke-opacity:1"
     id="9" />
  <path
     inkscape:connector-curvature="0"
     d="m 806.74014,179.43307 c -0.77953,0.63779 -1.55905,1.13386 -2.26772,1.38189 -0.70866,0.28346 -1.48818,0.4252 -2.33858,0.4252 -1.34646,0 -2.40945,-0.35433 -3.15354,-0.99213 -0.70866,-0.67323 -1.09843,-1.52362 -1.09843,-2.58661 0,-0.60237 0.14174,-1.1693 0.4252,-1.66536 0.28346,-0.49606 0.6378,-0.88583 1.09843,-1.20472 0.46062,-0.3189 0.95669,-0.5315 1.52362,-0.70866 0.38976,-0.1063 1.02756,-0.2126 1.87795,-0.3189 1.70079,-0.17717 2.94094,-0.4252 3.75591,-0.70866 0,-0.28347 0,-0.46063 0,-0.56693 0,-0.8504 -0.17717,-1.45276 -0.60237,-1.80709 -0.53149,-0.46063 -1.34645,-0.70866 -2.40945,-0.70866 -0.99212,0 -1.70078,0.17716 -2.19685,0.5315 -0.46063,0.35433 -0.81496,0.95669 -1.02756,1.84252 l -2.05511,-0.28347 c 0.17716,-0.88583 0.49606,-1.59449 0.92126,-2.12598 0.42519,-0.56693 1.02756,-0.99213 1.84252,-1.27559 0.81496,-0.28347 1.77165,-0.4252 2.83464,-0.4252 1.06299,0 1.91339,0.1063 2.58662,0.35433 0.67322,0.24803 1.16929,0.56693 1.48818,0.95669 0.28347,0.38977 0.49607,0.8504 0.6378,1.41733 0.0709,0.38976 0.1063,1.02755 0.1063,1.94881 l 0,2.83465 c 0,1.94882 0.0354,3.18898 0.14173,3.72047 0.0709,0.49607 0.24803,0.99213 0.5315,1.48819 l -2.19685,0 c -0.2126,-0.4252 -0.35433,-0.95669 -0.4252,-1.52362 z m -0.17716,-4.7126 c -0.77953,0.28347 -1.91339,0.56693 -3.43701,0.77953 -0.88583,0.14173 -1.48819,0.28346 -1.84252,0.4252 -0.35433,0.14173 -0.6378,0.38976 -0.8504,0.67322 -0.17716,0.3189 -0.28346,0.6378 -0.28346,1.02756 0,0.56693 0.2126,1.02756 0.63779,1.38189 0.4252,0.38977 1.063,0.56693 1.87796,0.56693 0.81496,0 1.52362,-0.17716 2.16141,-0.53149 0.6378,-0.35434 1.09843,-0.8504 1.38189,-1.45276 0.24804,-0.46063 0.35434,-1.16929 0.35434,-2.12598 z"
     style="fill:#000000;fill-opacity:1;fill-rule:nonzero;stroke:#ffffff;stroke-opacity:1"
     id="10" />
  <path
     inkscape:connector-curvature="0"
     d="m 811.98423,168.51968 9.81497,0 0,12.43701 -2.09056,0 0,-10.70079 -5.63385,0 0,10.70079 -2.09056,0 z"
     style="fill:#000000;fill-opacity:1;fill-rule:nonzero;stroke:#ffffff;stroke-opacity:1"
     id="11" />
  <path
     inkscape:connector-curvature="0"
     d="m 824.95274,185.74016 0,-17.22048 1.91338,0 0,1.59449 c 0.46063,-0.63779 0.99213,-1.09842 1.55906,-1.41732 0.56693,-0.3189 1.24016,-0.46063 2.05512,-0.46063 1.06299,0 2.01968,0.24803 2.83464,0.81496 0.77953,0.5315 1.41733,1.31102 1.80709,2.30315 0.4252,0.99213 0.63779,2.09055 0.63779,3.29527 0,1.2756 -0.21259,2.40945 -0.67322,3.43701 -0.46063,0.99213 -1.13386,1.80709 -2.01969,2.33859 -0.85039,0.53149 -1.77165,0.81496 -2.72834,0.81496 -0.70867,0 -1.34646,-0.14174 -1.91339,-0.46063 -0.5315,-0.28347 -0.99213,-0.67323 -1.34646,-1.09843 l 0,6.05906 z m 1.91338,-10.94882 c 0,1.59449 0.3189,2.79921 0.9567,3.5433 0.67323,0.77953 1.45275,1.1693 2.37401,1.1693 0.92126,0 1.73622,-0.38977 2.40945,-1.20473 0.67323,-0.77953 0.99213,-2.01968 0.99213,-3.68504 0,-1.55905 -0.3189,-2.76378 -0.9567,-3.54331 -0.67322,-0.81496 -1.45275,-1.20472 -2.33858,-1.20472 -0.92126,0 -1.70079,0.4252 -2.40945,1.27559 -0.67322,0.85039 -1.02756,2.05512 -1.02756,3.64961 z"
     style="fill:#000000;fill-opacity:1;fill-rule:nonzero;stroke:#ffffff;stroke-opacity:1"
     id="12" />
  <path
     inkscape:connector-curvature="0"
     d="m 846.42518,179.43307 c -0.77953,0.63779 -1.52362,1.13386 -2.23228,1.38189 -0.7441,0.28346 -1.52363,0.4252 -2.33859,0.4252 -1.38189,0 -2.40945,-0.35433 -3.15354,-0.99213 -0.74409,-0.67323 -1.09843,-1.52362 -1.09843,-2.58661 0,-0.60237 0.14174,-1.1693 0.4252,-1.66536 0.24803,-0.49606 0.6378,-0.88583 1.06299,-1.20472 0.46063,-0.3189 0.9567,-0.5315 1.52363,-0.70866 0.42519,-0.1063 1.06299,-0.2126 1.87795,-0.3189 1.70079,-0.17717 2.97638,-0.4252 3.7559,-0.70866 0.0354,-0.28347 0.0354,-0.46063 0.0354,-0.56693 0,-0.8504 -0.2126,-1.45276 -0.60237,-1.80709 -0.53149,-0.46063 -1.34645,-0.70866 -2.40944,-0.70866 -0.99213,0 -1.73622,0.17716 -2.19685,0.5315 -0.46063,0.35433 -0.81497,0.95669 -1.063,1.84252 l -2.05511,-0.28347 c 0.17716,-0.88583 0.49606,-1.59449 0.92126,-2.12598 0.42519,-0.56693 1.06299,-0.99213 1.87795,-1.27559 0.81496,-0.28347 1.73622,-0.4252 2.83464,-0.4252 1.063,0 1.91339,0.1063 2.58662,0.35433 0.63779,0.24803 1.13386,0.56693 1.45275,0.95669 0.3189,0.38977 0.5315,0.8504 0.67323,1.41733 0.0709,0.38976 0.1063,1.02755 0.1063,1.94881 l 0,2.83465 c 0,1.94882 0.0354,3.18898 0.1063,3.72047 0.1063,0.49607 0.28346,0.99213 0.5315,1.48819 l -2.19685,0 c -0.2126,-0.4252 -0.35433,-0.95669 -0.4252,-1.52362 z m -0.17717,-4.7126 c -0.74409,0.28347 -1.91338,0.56693 -3.437,0.77953 -0.8504,0.14173 -1.48819,0.28346 -1.84252,0.4252 -0.35433,0.14173 -0.6378,0.38976 -0.81496,0.67322 -0.2126,0.3189 -0.3189,0.6378 -0.3189,1.02756 0,0.56693 0.2126,1.02756 0.63779,1.38189 0.4252,0.38977 1.063,0.56693 1.87796,0.56693 0.81496,0 1.55905,-0.17716 2.16141,-0.53149 0.6378,-0.35434 1.09843,-0.8504 1.41733,-1.45276 0.21259,-0.46063 0.31889,-1.16929 0.31889,-2.12598 z"
     style="fill:#000000;fill-opacity:1;fill-rule:nonzero;stroke:#ffffff;stroke-opacity:1"
     id="13" />
  <path
     inkscape:connector-curvature="0"
     d="m 851.66927,168.51968 4.88977,0 c 1.16929,0 2.09055,0.0709 2.65748,0.28347 0.56693,0.2126 1.06299,0.56693 1.48819,1.09842 0.42519,0.5315 0.63779,1.16929 0.63779,1.91339 0,0.60236 -0.14173,1.09842 -0.35433,1.55905 -0.24803,0.4252 -0.63779,0.81497 -1.13386,1.09843 0.60236,0.2126 1.09843,0.56693 1.45276,1.09842 0.38976,0.5315 0.60236,1.1693 0.60236,1.91339 -0.0709,1.16929 -0.49606,2.05512 -1.27559,2.62205 -0.74409,0.56693 -1.87795,0.85039 -3.33071,0.85039 l -5.63386,0 z m 2.12599,5.2441 2.23228,0 c 0.92126,0 1.52362,-0.0709 1.87795,-0.14173 0.3189,-0.1063 0.6378,-0.28347 0.88583,-0.60237 0.28347,-0.28346 0.38976,-0.60236 0.38976,-0.99212 0,-0.67323 -0.21259,-1.13386 -0.67322,-1.38189 -0.46063,-0.24803 -1.27559,-0.38977 -2.40945,-0.38977 l -2.30315,0 z m 0,5.45669 2.76378,0 c 1.20472,0 2.01968,-0.14173 2.48031,-0.4252 0.4252,-0.28346 0.67323,-0.74409 0.70866,-1.41732 0,-0.4252 -0.14173,-0.77953 -0.38976,-1.13386 -0.28346,-0.31889 -0.60236,-0.53149 -1.02756,-0.63779 -0.38976,-0.0709 -1.06299,-0.14173 -1.98425,-0.14173 l -2.55118,0 z"
     style="fill:#000000;fill-opacity:1;fill-rule:nonzero;stroke:#ffffff;stroke-opacity:1"
     id="14" />
  <path
     inkscape:connector-curvature="0"
     d="m 865.45274,168.51968 9.81496,0 0,12.43701 -2.12599,0 0,-10.70079 -5.56299,0 0,6.20079 c 0,1.45276 -0.0709,2.40945 -0.14173,2.87008 -0.1063,0.46063 -0.35433,0.85039 -0.77953,1.20472 -0.42519,0.3189 -1.02756,0.49607 -1.84252,0.49607 -0.49606,0 -1.06299,-0.0354 -1.70078,-0.0709 l 0,-1.77165 0.92125,0 c 0.46063,0 0.77953,-0.0354 0.9567,-0.14173 0.17716,-0.0709 0.3189,-0.2126 0.35433,-0.4252 0.0709,-0.17717 0.1063,-0.81496 0.1063,-1.91339 z"
     style="fill:#000000;fill-opacity:1;fill-rule:nonzero;stroke:#ffffff;stroke-opacity:1"
     id="15" />
  <path
     inkscape:connector-curvature="0"
     d="m 886.96061,176.95275 2.16142,0.24804 c -0.3189,1.27559 -0.95669,2.26771 -1.87795,2.97637 -0.9567,0.70867 -2.12599,1.063 -3.57874,1.063 -1.80709,0 -3.25985,-0.56693 -4.32284,-1.70079 -1.06299,-1.09843 -1.59449,-2.69291 -1.59449,-4.7126 0,-2.09055 0.5315,-3.72047 1.59449,-4.85433 1.09843,-1.16929 2.48032,-1.73622 4.21654,-1.73622 1.66535,0 3.01181,0.56693 4.0748,1.70079 1.06299,1.13385 1.55905,2.72834 1.55905,4.78346 0,0.1063 0,0.28347 0,0.5315 l -9.28346,0 c 0.0709,1.38189 0.46063,2.44488 1.16929,3.15354 0.70866,0.74409 1.55906,1.09843 2.58662,1.09843 0.77952,0 1.45275,-0.2126 1.98425,-0.60237 0.56693,-0.42519 0.99212,-1.06299 1.31102,-1.94882 z m -6.94488,-3.40157 6.98031,0 c -0.10629,-1.06299 -0.38976,-1.84252 -0.81496,-2.37402 -0.67322,-0.81496 -1.52362,-1.20472 -2.62204,-1.20472 -0.9567,0 -1.77166,0.3189 -2.44489,0.95669 -0.63779,0.6378 -1.02755,1.52362 -1.09842,2.62205 z"
     style="fill:#000000;fill-opacity:1;fill-rule:nonzero;stroke:#ffffff;stroke-opacity:1"
     id="16" />
  <path
     inkscape:connector-curvature="0"
     d="m 891.81494,168.51968 2.09055,0 0,5.17323 5.84646,0 0,-5.17323 2.12598,0 0,12.43701 -2.12598,0 0,-5.52756 -5.84646,0 0,5.52756 -2.09055,0 z"
     style="fill:#000000;fill-opacity:1;fill-rule:nonzero;stroke:#ffffff;stroke-opacity:1"
     id="17" />
  <path
     inkscape:connector-curvature="0"
     d="m 905.06691,168.51968 2.09055,0 0,9.49607 5.84646,-9.49607 2.30315,0 0,12.43701 -2.12599,0 0,-9.4252 -5.84645,9.4252 -2.26772,0 z"
     style="fill:#000000;fill-opacity:1;fill-rule:nonzero;stroke:#ffffff;stroke-opacity:1"
     id="18" />
  <path
     inkscape:connector-curvature="0"
     d="m 926.99998,176.95275 2.16142,0.24804 c -0.3189,1.27559 -0.9567,2.26771 -1.91339,2.97637 -0.92126,0.70867 -2.09055,1.063 -3.5433,1.063 -1.84252,0 -3.25985,-0.56693 -4.32284,-1.70079 -1.09842,-1.09843 -1.62992,-2.69291 -1.62992,-4.7126 0,-2.09055 0.56693,-3.72047 1.62992,-4.85433 1.06299,-1.16929 2.48032,-1.73622 4.1811,-1.73622 1.66536,0 3.04725,0.56693 4.11024,1.70079 1.02756,1.13385 1.55905,2.72834 1.55905,4.78346 0,0.1063 0,0.28347 0,0.5315 l -9.28346,0 c 0.0709,1.38189 0.46063,2.44488 1.16929,3.15354 0.67323,0.74409 1.55906,1.09843 2.58662,1.09843 0.77952,0 1.45275,-0.2126 1.98425,-0.60237 0.53149,-0.42519 0.99212,-1.06299 1.31102,-1.94882 z m -6.94488,-3.40157 6.94488,0 c -0.0709,-1.06299 -0.35433,-1.84252 -0.77953,-2.37402 -0.67323,-0.81496 -1.55905,-1.20472 -2.62204,-1.20472 -0.9567,0 -1.77166,0.3189 -2.44489,0.95669 -0.63779,0.6378 -1.02756,1.52362 -1.09842,2.62205 z"
     style="fill:#000000;fill-opacity:1;fill-rule:nonzero;stroke:#ffffff;stroke-opacity:1"
     id="19" />
  <path
     inkscape:connector-curvature="0"
     d="m 782.92912,198.49606 8.6811,0 0,10.73622 1.34646,0 0,5.2441 -1.73622,0 0,-3.50788 -9.81496,0 0,3.50788 -1.73623,0 0,-5.2441 1.13386,0 c 1.48819,-2.01968 2.19685,-5.59842 2.12599,-10.73622 z m 1.77165,1.77165 c -0.17716,4.03938 -0.77953,7.01575 -1.87795,8.96457 l 6.69685,0 0,-8.96457 z"
     style="fill:#000000;fill-opacity:1;fill-rule:nonzero;stroke:#ffffff;stroke-opacity:1"
     id="20" />
  <path
     inkscape:connector-curvature="0"
     d="m 795.29526,198.49606 4.85433,0 c 1.20472,0 2.09055,0.1063 2.65748,0.3189 0.60236,0.17716 1.09842,0.56693 1.52362,1.09842 0.4252,0.5315 0.60236,1.1693 0.60236,1.91339 0,0.56693 -0.1063,1.09843 -0.35433,1.52362 -0.24803,0.46063 -0.60236,0.81496 -1.09842,1.13386 0.56693,0.17717 1.06299,0.5315 1.45275,1.09843 0.38977,0.53149 0.56693,1.16929 0.56693,1.87795 -0.0709,1.20472 -0.49606,2.05512 -1.24015,2.62205 -0.77953,0.60236 -1.87796,0.88582 -3.36615,0.88582 l -5.59842,0 z m 2.12598,5.2441 2.23229,0 c 0.88582,0 1.52362,-0.0354 1.84252,-0.14174 0.35433,-0.0709 0.63779,-0.28346 0.92126,-0.56693 0.24803,-0.28346 0.38976,-0.63779 0.38976,-1.02755 0,-0.6378 -0.24803,-1.09843 -0.70866,-1.34646 -0.46063,-0.28347 -1.24016,-0.38977 -2.37402,-0.38977 l -2.30315,0 z m 0,5.49212 2.76378,0 c 1.20473,0 2.01969,-0.14173 2.44488,-0.4252 0.46063,-0.28346 0.70867,-0.74409 0.70867,-1.45275 0,-0.38976 -0.1063,-0.7441 -0.38977,-1.09843 -0.24803,-0.31889 -0.56693,-0.56693 -0.99212,-0.63779 -0.4252,-0.1063 -1.09843,-0.14173 -1.98426,-0.14173 l -2.55118,0 z"
     style="fill:#000000;fill-opacity:1;fill-rule:nonzero;stroke:#ffffff;stroke-opacity:1"
     id="21" />
  <path
     inkscape:connector-curvature="0"
     d="m 808.01573,198.49606 2.12599,0 0,9.49606 5.84645,-9.49606 2.26772,0 0,12.47244 -2.09055,0 0,-9.46063 -5.84646,9.46063 -2.30315,0 z"
     style="fill:#000000;fill-opacity:1;fill-rule:nonzero;stroke:#ffffff;stroke-opacity:1"
     id="22" />
  <path
     inkscape:connector-curvature="0"
     d="m 828.95668,198.49606 0,5.38583 c 0.67322,0 1.13385,-0.1063 1.41732,-0.38977 0.28346,-0.24803 0.67323,-0.99212 1.20472,-2.23228 0.49607,-1.20472 0.92126,-1.94882 1.31103,-2.26772 0.38976,-0.31889 0.99212,-0.49606 1.84252,-0.49606 l 0.77952,0 0,1.77165 -0.56693,-0.0354 c -0.56692,0 -0.95669,0.1063 -1.09842,0.24803 -0.17717,0.17717 -0.4252,0.70866 -0.7441,1.55906 -0.31889,0.77953 -0.60236,1.34646 -0.88582,1.66535 -0.24803,0.3189 -0.67323,0.60237 -1.24016,0.8504 0.92126,0.24803 1.80709,1.09842 2.69291,2.55118 l 2.30315,3.8622 -2.30315,0 -2.26771,-3.8622 c -0.46063,-0.77953 -0.8504,-1.31103 -1.20473,-1.55906 -0.35433,-0.2126 -0.74409,-0.35433 -1.24015,-0.35433 l 0,5.77559 -2.16142,0 0,-5.77559 c -0.46063,0 -0.8504,0.14173 -1.20473,0.35433 -0.35433,0.24803 -0.74409,0.7441 -1.20472,1.55906 l -2.26772,3.8622 -2.30315,0 2.30315,-3.8622 c 0.8504,-1.45276 1.77166,-2.30315 2.65748,-2.55118 -0.60236,-0.28347 -1.06299,-0.60237 -1.31102,-0.92126 -0.24803,-0.35433 -0.60236,-1.16929 -1.09843,-2.44489 -0.17716,-0.42519 -0.35433,-0.70866 -0.56692,-0.77952 -0.2126,-0.1063 -0.49607,-0.17717 -0.88583,-0.17717 -0.1063,0 -0.3189,0 -0.6378,0.0354 l 0,-1.77165 0.28347,0 c 0.81496,0 1.38189,0.0709 1.73622,0.14173 0.3189,0.1063 0.63779,0.3189 0.88583,0.6378 0.24803,0.3189 0.60236,0.99212 1.02755,1.98425 0.49607,1.20473 0.92126,1.94882 1.1693,2.23228 0.28346,0.24804 0.74409,0.38977 1.41732,0.38977 l 0,-5.38583 z"
     style="fill:#000000;fill-opacity:1;fill-rule:nonzero;stroke:#ffffff;stroke-opacity:1"
     id="23" />
  <path
     inkscape:connector-curvature="0"
     d="m 846.03542,206.92913 2.19685,0.28347 c -0.35434,1.27559 -0.99213,2.26771 -1.91339,2.97637 -0.95669,0.70867 -2.12598,1.063 -3.57874,1.063 -1.80709,0 -3.25984,-0.56693 -4.32283,-1.70079 -1.063,-1.13386 -1.59449,-2.69291 -1.59449,-4.7126 0,-2.09055 0.53149,-3.72047 1.59449,-4.88976 1.09842,-1.13386 2.48031,-1.73622 4.21653,-1.73622 1.66535,0 3.01181,0.56693 4.0748,1.70078 1.063,1.13386 1.59449,2.72835 1.59449,4.78347 0,0.14173 -0.0354,0.3189 -0.0354,0.56693 l -9.28347,0 c 0.0709,1.38189 0.46063,2.40945 1.1693,3.15354 0.70866,0.70866 1.55905,1.09843 2.58661,1.09843 0.77953,0 1.45276,-0.2126 1.98425,-0.6378 0.56693,-0.38976 0.99213,-1.02756 1.31103,-1.94882 z m -6.90945,-3.40157 6.94488,0 c -0.1063,-1.02756 -0.35433,-1.80709 -0.81496,-2.33859 -0.67323,-0.81496 -1.52362,-1.24015 -2.62205,-1.24015 -0.95669,0 -1.77165,0.31889 -2.44488,0.99212 -0.6378,0.6378 -0.99213,1.52363 -1.06299,2.58662 z"
     style="fill:#000000;fill-opacity:1;fill-rule:nonzero;stroke:#ffffff;stroke-opacity:1"
     id="24" />
  <path
     inkscape:connector-curvature="0"
     d="m 850.88975,198.49606 2.09055,0 0,5.20866 5.88189,0 0,-5.20866 2.09055,0 0,12.47244 -2.09055,0 0,-5.52756 -5.88189,0 0,5.52756 -2.09055,0 z"
     style="fill:#000000;fill-opacity:1;fill-rule:nonzero;stroke:#ffffff;stroke-opacity:1"
     id="25" />
  <path
     inkscape:connector-curvature="0"
     d="m 864.14171,198.49606 2.12599,0 0,9.49606 5.84645,-9.49606 2.26772,0 0,12.47244 -2.12598,0 0,-9.46063 -5.84646,9.46063 -2.26772,0 z"
     style="fill:#000000;fill-opacity:1;fill-rule:nonzero;stroke:#ffffff;stroke-opacity:1"
     id="26" />
  <path
     inkscape:connector-curvature="0"
     d="m 887.35038,198.49606 0,12.47244 -2.09056,0 0,-4.85433 -1.24015,0 c -0.7441,0 -1.27559,0.0709 -1.66536,0.28347 -0.35433,0.17716 -0.88582,0.81496 -1.55905,1.84252 l -1.84252,2.72834 -2.62205,0 2.26772,-3.36614 c 0.70866,-1.02756 1.38189,-1.59449 2.09055,-1.73622 -1.20473,-0.17717 -2.09055,-0.60236 -2.69292,-1.31102 -0.56692,-0.70866 -0.88582,-1.48819 -0.88582,-2.40945 0,-1.09843 0.38976,-1.94882 1.16929,-2.62205 0.74409,-0.67323 1.84252,-1.02756 3.29527,-1.02756 z m -2.09056,1.77165 -3.01181,0 c -1.27559,0 -2.05512,0.17717 -2.44488,0.56693 -0.35433,0.38977 -0.53149,0.8504 -0.53149,1.38189 0,0.7441 0.28346,1.27559 0.81496,1.62993 0.53149,0.35433 1.45275,0.53149 2.83464,0.53149 l 2.33858,0 z"
     style="fill:#000000;fill-opacity:1;fill-rule:nonzero;stroke:#ffffff;stroke-opacity:1"
     id="27" />
  <path
     inkscape:connector-curvature="0"
     d="m 595.27558,145.06299 -58.9252,103.96063 c -65.44488,-9.49606 -131.63385,25.40551 -159.12992,89.00787 -32.84645,76.03937 2.16142,164.33858 78.20079,197.18504 76.03937,32.84646 164.33858,-2.16142 197.18504,-78.20079 27.35433,-63.24803 7.7244,-134.96456 -43.40552,-176.20866 L 642.0118,165.25984 z"
     style="fill:#000000;fill-opacity:1;fill-rule:evenodd;stroke:#ffffff;stroke-width:1.98425198000000000px;stroke-linecap:butt;stroke-linejoin:miter;stroke-miterlimit:4;stroke-opacity:1;stroke-dasharray:none"
     id="28" />
  <path
     inkscape:connector-curvature="0"
     d="m 267.05905,386.29134 95.84645,8.75196"
     style="fill:none;stroke:#ffffff;stroke-width:1.98425198px;stroke-linecap:butt;stroke-linejoin:miter;stroke-miterlimit:4;stroke-opacity:1;stroke-dasharray:none"
     id="29" />
  <path
     inkscape:connector-curvature="0"
     d="m 342.99212,393.20078 -8.71654,7.26378 28.62992,-5.42126 -27.17716,-10.52362 7.26378,8.6811 z"
     style="fill:#000000;fill-opacity:1;fill-rule:evenodd;stroke:#ffffff;stroke-width:1.98425198px;stroke-linecap:butt;stroke-linejoin:miter;stroke-miterlimit:4;stroke-opacity:1;stroke-dasharray:none"
     id="30" />
  <path
     inkscape:connector-curvature="0"
     d="M 765.88581,478.06299 653.49211,452.33858"
     style="fill:none;stroke:#ffffff;stroke-width:1.98425198px;stroke-linecap:butt;stroke-linejoin:miter;stroke-miterlimit:4;stroke-opacity:1;stroke-dasharray:none"
     id="31" />
  <path
     inkscape:connector-curvature="0"
     d="m 672.9803,456.80315 9.56693,-5.98819 -29.05512,1.52362 25.51181,14.06693 -6.02362,-9.60236 z"
     style="fill:#000000;fill-opacity:1;fill-rule:evenodd;stroke:#ffffff;stroke-width:1.98425198px;stroke-linecap:butt;stroke-linejoin:miter;stroke-miterlimit:4;stroke-opacity:1;stroke-dasharray:none"
     id="32" />
  <path
     inkscape:connector-curvature="0"
     d="M 719.29132,569.16141 631.98424,497.12598"
     style="fill:none;stroke:#ffffff;stroke-width:1.98425198px;stroke-linecap:butt;stroke-linejoin:miter;stroke-miterlimit:4;stroke-opacity:1;stroke-dasharray:none"
     id="33" />
  <path
     inkscape:connector-curvature="0"
     d="m 647.43306,509.84645 11.26771,-1.06299 -26.71653,-11.65748 16.51181,23.98819 -1.06299,-11.26772 z"
     style="fill:#000000;fill-opacity:1;fill-rule:evenodd;stroke:#ffffff;stroke-width:1.98425198px;stroke-linecap:butt;stroke-linejoin:miter;stroke-miterlimit:4;stroke-opacity:1;stroke-dasharray:none"
     id="34" />
  <path
     inkscape:connector-curvature="0"
     d="m 765.03542,390.11811 -97.97244,8.75197"
     style="fill:none;stroke:#ffffff;stroke-width:1.98425198px;stroke-linecap:butt;stroke-linejoin:miter;stroke-miterlimit:4;stroke-opacity:1;stroke-dasharray:none"
     id="35" />
  <path
     inkscape:connector-curvature="0"
     d="m 686.97636,397.06299 7.26378,-8.6811 -27.17716,10.48819 28.59449,5.45669 -8.68111,-7.26378 z"
     style="fill:#000000;fill-opacity:1;fill-rule:evenodd;stroke:#ffffff;stroke-width:1.98425198px;stroke-linecap:butt;stroke-linejoin:miter;stroke-miterlimit:4;stroke-opacity:1;stroke-dasharray:none"
     id="36" />
  <path
     inkscape:connector-curvature="0"
     d="m 730.87794,323.75197 -74.44488,23.49212"
     style="fill:none;stroke:#ffffff;stroke-width:1.98425198px;stroke-linecap:butt;stroke-linejoin:miter;stroke-miterlimit:4;stroke-opacity:1;stroke-dasharray:none"
     id="37" />
  <path
     inkscape:connector-curvature="0"
     d="m 675.49605,341.2559 5.20866,-10.06299 -24.27165,16.05118 29.09055,-0.77953 -10.02756,-5.20866 z"
     style="fill:#000000;fill-opacity:1;fill-rule:evenodd;stroke:#ffffff;stroke-width:1.98425198px;stroke-linecap:butt;stroke-linejoin:miter;stroke-miterlimit:4;stroke-opacity:1;stroke-dasharray:none"
     id="38" />
  <path
     inkscape:connector-curvature="0"
     d="m 516.79133,672.41338 7.26378,-122.52756"
     style="fill:none;stroke:#ffffff;stroke-width:1.98425198px;stroke-linecap:butt;stroke-linejoin:miter;stroke-miterlimit:4;stroke-opacity:1;stroke-dasharray:none"
     id="39" />
  <path
     inkscape:connector-curvature="0"
     d="m 522.88582,569.87007 7.51181,8.46851 -6.34252,-28.45276 -9.6378,27.49607 8.46851,-7.51182 z"
     style="fill:#000000;fill-opacity:1;fill-rule:evenodd;stroke:#ffffff;stroke-width:1.98425198px;stroke-linecap:butt;stroke-linejoin:miter;stroke-miterlimit:4;stroke-opacity:1;stroke-dasharray:none"
     id="40" />
  <path
     inkscape:connector-curvature="0"
     d="M 623.51573,643.14566 578.97637,534.11811"
     style="fill:none;stroke:#ffffff;stroke-width:1.98425198px;stroke-linecap:butt;stroke-linejoin:miter;stroke-miterlimit:4;stroke-opacity:1;stroke-dasharray:none"
     id="41" />
  <path
     inkscape:connector-curvature="0"
     d="m 586.55904,552.61417 10.41733,4.3937 -18,-22.88976 3.18897,28.94881 4.3937,-10.45275 z"
     style="fill:#000000;fill-opacity:1;fill-rule:evenodd;stroke:#ffffff;stroke-width:1.98425198px;stroke-linecap:butt;stroke-linejoin:miter;stroke-miterlimit:4;stroke-opacity:1;stroke-dasharray:none"
     id="42" />
  <path
     inkscape:connector-curvature="0"
     d="m 417.61416,651.04724 41.1378,-115.61811"
     style="fill:none;stroke:#ffffff;stroke-width:1.98425198px;stroke-linecap:butt;stroke-linejoin:miter;stroke-miterlimit:4;stroke-opacity:1;stroke-dasharray:none"
     id="43" />
  <path
     inkscape:connector-curvature="0"
     d="m 452.01968,554.27952 4.88976,10.20473 1.84252,-29.05512 -16.93701,23.70472 10.20473,-4.85433 z"
     style="fill:#000000;fill-opacity:1;fill-rule:evenodd;stroke:#ffffff;stroke-width:1.98425198px;stroke-linecap:butt;stroke-linejoin:miter;stroke-miterlimit:4;stroke-opacity:1;stroke-dasharray:none"
     id="44" />
  <path
     inkscape:connector-curvature="0"
     d="M 655.01573,346.85433 627.37794,253.06299"
     style="fill:none;stroke:#ffffff;stroke-width:1.98425198px;stroke-linecap:butt;stroke-linejoin:miter;stroke-miterlimit:4;stroke-opacity:1;stroke-dasharray:1.9842519, 3.9685039;stroke-dashoffset:0"
     id="45" />
  <path
     inkscape:connector-curvature="0"
     d="m 633.04723,272.23228 9.92126,5.42126 -15.59055,-24.59055 0.24803,29.12598 5.42126,-9.95669 z"
     style="fill:#000000;fill-opacity:1;fill-rule:evenodd;stroke:#ffffff;stroke-width:1.98425198px;stroke-linecap:butt;stroke-linejoin:miter;stroke-miterlimit:4;stroke-opacity:1;stroke-dasharray:none"
     id="46" />
  <path
     inkscape:connector-curvature="0"
     d="M 656.50392,449.1496 730.8425,295.15748"
     style="fill:none;stroke:#ffffff;stroke-width:1.98425198px;stroke-linecap:butt;stroke-linejoin:miter;stroke-miterlimit:4;stroke-opacity:1;stroke-dasharray:1.9842519, 3.9685039;stroke-dashoffset:0"
     id="47" />
  <path
     inkscape:connector-curvature="0"
     d="m 722.1614,313.15748 3.72047,10.70079 4.96063,-28.70079 -19.38189,21.72047 10.70079,-3.72047 z"
     style="fill:#000000;fill-opacity:1;fill-rule:evenodd;stroke:#ffffff;stroke-width:1.98425198px;stroke-linecap:butt;stroke-linejoin:miter;stroke-miterlimit:4;stroke-opacity:1;stroke-dasharray:none"
     id="48" />
  <path
     inkscape:connector-curvature="0"
     d="M 578.97637,532.94881 707.91731,489.9685"
     style="fill:none;stroke:#ffffff;stroke-width:1.98425198px;stroke-linecap:butt;stroke-linejoin:miter;stroke-miterlimit:4;stroke-opacity:1;stroke-dasharray:1.9842519, 3.9685039;stroke-dashoffset:0"
     id="49" />
  <path
     inkscape:connector-curvature="0"
     d="m 688.92518,496.27559 -5.06693,10.13385 24.05906,-16.44094 -29.12599,1.27559 10.13386,5.0315 z"
     style="fill:#000000;fill-opacity:1;fill-rule:evenodd;stroke:#ffffff;stroke-width:1.98425198px;stroke-linecap:butt;stroke-linejoin:miter;stroke-miterlimit:4;stroke-opacity:1;stroke-dasharray:none"
     id="50" />
  <path
     inkscape:connector-curvature="0"
     d="m 459.95668,539.5748 128.58661,46.98425"
     style="fill:none;stroke:#ffffff;stroke-width:1.98425198px;stroke-linecap:butt;stroke-linejoin:miter;stroke-miterlimit:4;stroke-opacity:1;stroke-dasharray:1.9842519, 3.9685039;stroke-dashoffset:0"
     id="51" />
  <path
     inkscape:connector-curvature="0"
     d="m 569.76377,579.68503 -10.27559,4.78347 29.05511,2.09055 -23.56299,-17.11417 4.78347,10.24015 z"
     style="fill:#000000;fill-opacity:1;fill-rule:evenodd;stroke:#ffffff;stroke-width:1.98425198px;stroke-linecap:butt;stroke-linejoin:miter;stroke-miterlimit:4;stroke-opacity:1;stroke-dasharray:none"
     id="52" />
  <path
     inkscape:connector-curvature="0"
     d="m 51.484251,233.92913 1.169291,38.37402"
     style="fill:none;stroke:#ffffff;stroke-width:1.98425198px;stroke-linecap:butt;stroke-linejoin:miter;stroke-miterlimit:4;stroke-opacity:1;stroke-dasharray:none"
     id="53" />
  <path
     inkscape:connector-curvature="0"
     d="m 51.59055,237.82677 c -2.19685,0.0709 -4.03937,-1.66535 -4.110236,-3.8622 -0.07087,-2.19686 1.665354,-4.03937 3.862205,-4.11024 2.19685,-0.0709 4.074803,1.66535 4.110236,3.8622 0.07087,2.19685 -1.665355,4.03937 -3.862205,4.11024 z"
     style="fill:#000000;fill-opacity:1;fill-rule:evenodd;stroke:#ffffff;stroke-width:0.99212599px;stroke-linecap:butt;stroke-linejoin:miter;stroke-miterlimit:4;stroke-opacity:1;stroke-dasharray:none"
     id="54" />
  <path
     inkscape:connector-curvature="0"
     d="m 52.05118,252.3189 -8.255905,-7.75985 8.858267,27.7441 7.122047,-28.24016 -7.724409,8.25591 z"
     style="fill:#000000;fill-opacity:1;fill-rule:evenodd;stroke:#ffffff;stroke-width:1.98425198px;stroke-linecap:butt;stroke-linejoin:miter;stroke-miterlimit:4;stroke-opacity:1;stroke-dasharray:none"
     id="55" />
  <path
     inkscape:connector-curvature="0"
     d="m 43.795275,142.51181 95.846455,8.75197"
     style="fill:none;stroke:#ffffff;stroke-width:1.98425198px;stroke-linecap:butt;stroke-linejoin:miter;stroke-miterlimit:4;stroke-opacity:1;stroke-dasharray:none"
     id="56" />
  <path
     inkscape:connector-curvature="0"
     d="m 119.72834,149.42126 -8.71653,7.26378 28.62992,-5.42126 -27.17717,-10.52362 7.26378,8.6811 z"
     style="fill:#000000;fill-opacity:1;fill-rule:evenodd;stroke:#ffffff;stroke-width:1.98425198px;stroke-linecap:butt;stroke-linejoin:miter;stroke-miterlimit:4;stroke-opacity:1;stroke-dasharray:none"
     id="57" />
  <path
     inkscape:connector-curvature="0"
     d="M 43.795275,178.12205 140.24409,211.8189"
     style="fill:none;stroke:#ffffff;stroke-width:1.98425198px;stroke-linecap:butt;stroke-linejoin:miter;stroke-miterlimit:4;stroke-opacity:1;stroke-dasharray:1.9842519, 3.9685039;stroke-dashoffset:0"
     id="58" />
  <path
     inkscape:connector-curvature="0"
     d="m 121.35827,205.22834 -10.20473,4.9252 29.09055,1.66536 -23.81102,-16.75985 4.9252,10.16929 z"
     style="fill:#000000;fill-opacity:1;fill-rule:evenodd;stroke:#ffffff;stroke-width:1.98425198000000000px;stroke-linecap:butt;stroke-linejoin:miter;stroke-miterlimit:4;stroke-opacity:1;stroke-dasharray:none"
     id="59" />
  <path
     inkscape:connector-curvature="0"
     d="m 184.3937,145.52362 2.26771,0.56693 c -0.46063,1.87795 -1.31102,3.29528 -2.55118,4.2874 -1.24016,0.95669 -2.76378,1.45276 -4.53543,1.45276 -1.87795,0 -3.36614,-0.38977 -4.53543,-1.13386 -1.16929,-0.7441 -2.05512,-1.84252 -2.65748,-3.25984 -0.60237,-1.45276 -0.88583,-2.97638 -0.88583,-4.6063 0,-1.80709 0.3189,-3.36614 1.02756,-4.67717 0.67323,-1.34645 1.62992,-2.37401 2.90551,-3.04724 1.27559,-0.70866 2.65748,-1.02756 4.1811,-1.02756 1.70079,0 3.15355,0.4252 4.32284,1.31102 1.16929,0.8504 1.98425,2.09055 2.44488,3.68504 l -2.23228,0.5315 c -0.38977,-1.27559 -0.99213,-2.16142 -1.73623,-2.72835 -0.74409,-0.56693 -1.70078,-0.85039 -2.87007,-0.85039 -1.31103,0 -2.40945,0.28346 -3.29528,0.92126 -0.88583,0.63779 -1.52362,1.48819 -1.87795,2.55118 -0.35433,1.06299 -0.5315,2.16142 -0.5315,3.29527 0,1.48819 0.2126,2.76378 0.6378,3.82678 0.42519,1.09842 1.09842,1.91338 1.98425,2.44488 0.88583,0.56693 1.87795,0.81496 2.90551,0.81496 1.27559,0 2.37402,-0.35433 3.25984,-1.09843 0.88583,-0.74409 1.45276,-1.80708 1.77166,-3.25984 z"
     style="fill:#ffffff;fill-opacity:1;fill-rule:nonzero;stroke:#ffffff;stroke-opacity:1"
     id="60" />
  <path
     inkscape:connector-curvature="0"
     d="m 189.21259,139.11024 2.12599,0 0,9.46062 5.84646,-9.46062 2.26771,0 0,12.437 -2.12598,0 0,-9.42519 -5.84646,9.42519 -2.26772,0 z"
     style="fill:#ffffff;fill-opacity:1;fill-rule:nonzero;stroke:#ffffff;stroke-opacity:1"
     id="61" />
  <path
     inkscape:connector-curvature="0"
     d="m 203.66929,139.11024 9.77952,0 0,12.437 -2.09055,0 0,-10.70078 -5.59842,0 0,6.20078 c 0,1.45276 -0.0354,2.37402 -0.14173,2.83465 -0.1063,0.46063 -0.35433,0.88583 -0.77953,1.24016 -0.4252,0.31889 -1.02756,0.49606 -1.80709,0.49606 -0.49606,0 -1.06299,-0.0354 -1.70079,-0.1063 l 0,-1.73622 0.92126,0 c 0.4252,0 0.7441,-0.0354 0.92126,-0.14173 0.2126,-0.1063 0.3189,-0.24803 0.38977,-0.4252 0.0709,-0.2126 0.1063,-0.85039 0.1063,-1.91339 z"
     style="fill:#ffffff;fill-opacity:1;fill-rule:nonzero;stroke:#ffffff;stroke-opacity:1"
     id="62" />
  <path
     inkscape:connector-curvature="0"
     d="m 228.47244,139.11024 2.12598,0 0,12.437 -2.12598,0 z m -11.79922,0 2.12599,0 0,4.85433 2.65748,0 c 1.73622,0 3.08268,0.31889 4.03937,0.99212 0.92126,0.67323 1.41732,1.62992 1.41732,2.79921 0,1.063 -0.38976,1.94882 -1.16929,2.69292 -0.81496,0.70866 -2.05512,1.09842 -3.79134,1.09842 l -5.27953,0 z m 2.12599,10.70078 2.19685,0 c 1.34646,0 2.30315,-0.17716 2.87008,-0.49606 0.56693,-0.3189 0.85039,-0.85039 0.85039,-1.52362 0,-0.56693 -0.2126,-1.02756 -0.63779,-1.45276 -0.4252,-0.4252 -1.34646,-0.63779 -2.79922,-0.63779 l -2.48031,0 z"
     style="fill:#ffffff;fill-opacity:1;fill-rule:nonzero;stroke:#ffffff;stroke-opacity:1"
     id="63" />
  <path
     inkscape:connector-curvature="0"
     d="m 242.22047,139.11024 8.64567,0 0,10.70078 1.34645,0 0,5.2441 -1.70078,0 0,-3.50788 -9.81496,0 0,3.50788 -1.73623,0 0,-5.2441 1.09843,0 c 1.48819,-2.01968 2.19685,-5.59842 2.16142,-10.70078 z m 1.73622,1.73622 c -0.14173,4.03937 -0.77953,7.01574 -1.87795,8.96456 l 6.69685,0 0,-8.96456 z"
     style="fill:#ffffff;fill-opacity:1;fill-rule:nonzero;stroke:#ffffff;stroke-opacity:1"
     id="64" />
  <path
     inkscape:connector-curvature="0"
     d="m 262.66535,149.98819 c -0.77953,0.67323 -1.52362,1.13386 -2.23228,1.41732 -0.7441,0.28347 -1.48819,0.4252 -2.33859,0.4252 -1.34645,0 -2.40945,-0.35433 -3.15354,-1.02756 -0.74409,-0.6378 -1.09843,-1.52362 -1.09843,-2.55118 0,-0.60236 0.14174,-1.16929 0.4252,-1.66536 0.28347,-0.49606 0.6378,-0.92126 1.09843,-1.20472 0.42519,-0.3189 0.95669,-0.5315 1.48819,-0.70866 0.42519,-0.1063 1.06299,-0.2126 1.87795,-0.3189 1.70079,-0.17717 2.97638,-0.4252 3.79134,-0.70866 0,-0.28347 0,-0.46063 0,-0.56693 0,-0.85039 -0.2126,-1.45276 -0.60237,-1.80709 -0.53149,-0.46063 -1.34645,-0.70866 -2.40944,-0.70866 -0.99213,0 -1.73622,0.17717 -2.19685,0.5315 -0.46063,0.31889 -0.81497,0.95669 -1.02756,1.84252 l -2.09055,-0.28347 c 0.21259,-0.88582 0.49606,-1.59449 0.92125,-2.16142 0.46063,-0.53149 1.063,-0.95669 1.87796,-1.24015 0.81496,-0.28347 1.77165,-0.4252 2.83464,-0.4252 1.063,0 1.91339,0.1063 2.58662,0.35433 0.67323,0.24803 1.13386,0.56693 1.45275,0.95669 0.3189,0.35433 0.5315,0.8504 0.67323,1.41733 0.0709,0.35433 0.1063,1.02756 0.1063,1.94882 l 0,2.83464 c 0,1.94882 0.0354,3.18898 0.1063,3.72047 0.1063,0.49607 0.28346,0.99213 0.56693,1.48819 l -2.23228,0 c -0.2126,-0.46063 -0.35434,-0.95669 -0.4252,-1.55905 z m -0.14173,-4.7126 c -0.77953,0.3189 -1.94882,0.60236 -3.47244,0.81496 -0.8504,0.14173 -1.48819,0.24803 -1.84252,0.4252 -0.35433,0.14173 -0.6378,0.38976 -0.81496,0.67323 -0.2126,0.31889 -0.28347,0.63779 -0.28347,1.02755 0,0.5315 0.2126,1.02756 0.6378,1.38189 0.42519,0.38977 1.02756,0.56693 1.84252,0.56693 0.81496,0 1.55905,-0.17716 2.19685,-0.53149 0.60236,-0.35433 1.09842,-0.8504 1.38189,-1.45276 0.21259,-0.49606 0.35433,-1.16929 0.35433,-2.12598 z"
     style="fill:#ffffff;fill-opacity:1;fill-rule:nonzero;stroke:#ffffff;stroke-opacity:1"
     id="65" />
  <path
     inkscape:connector-curvature="0"
     d="m 267.94488,139.11024 4.85433,0 c 1.20472,0 2.09055,0.0709 2.65748,0.28346 0.60236,0.2126 1.09842,0.56693 1.48819,1.09842 0.42519,0.5315 0.63779,1.1693 0.63779,1.91339 0,0.60236 -0.1063,1.09843 -0.35433,1.55906 -0.24803,0.42519 -0.63779,0.77952 -1.13386,1.09842 0.60236,0.17717 1.09843,0.56693 1.48819,1.09843 0.38977,0.53149 0.56693,1.16929 0.56693,1.91338 -0.0709,1.16929 -0.49606,2.05512 -1.27559,2.62205 -0.74409,0.56693 -1.87795,0.85039 -3.33071,0.85039 l -5.59842,0 z m 2.09055,5.20866 2.26771,0 c 0.88583,0 1.48819,-0.0354 1.84252,-0.14174 0.3189,-0.0709 0.6378,-0.28346 0.88583,-0.56692 0.28346,-0.28347 0.4252,-0.60237 0.4252,-1.02756 0,-0.6378 -0.24803,-1.09843 -0.70866,-1.34646 -0.46063,-0.28347 -1.27559,-0.38976 -2.37402,-0.38976 l -2.33858,0 z m 0,5.49212 2.79921,0 c 1.16929,0 1.98425,-0.14173 2.44488,-0.42519 0.46063,-0.28347 0.67323,-0.7441 0.70866,-1.41733 0,-0.42519 -0.14173,-0.77952 -0.38976,-1.13386 -0.24803,-0.31889 -0.60236,-0.53149 -1.02756,-0.63779 -0.38976,-0.0709 -1.06299,-0.14173 -1.98425,-0.14173 l -2.55118,0 z"
     style="fill:#ffffff;fill-opacity:1;fill-rule:nonzero;stroke:#ffffff;stroke-opacity:1"
     id="66" />
  <path
     inkscape:connector-curvature="0"
     d="m 281.69291,139.11024 9.81496,0 0,12.437 -2.09055,0 0,-10.70078 -5.59843,0 0,6.20078 c 0,1.45276 -0.0709,2.37402 -0.14173,2.83465 -0.1063,0.46063 -0.35433,0.88583 -0.77953,1.24016 -0.42519,0.31889 -1.02756,0.49606 -1.84252,0.49606 -0.49606,0 -1.02756,-0.0354 -1.70079,-0.1063 l 0,-1.73622 0.9567,0 c 0.42519,0 0.74409,-0.0354 0.92126,-0.14173 0.17716,-0.1063 0.3189,-0.24803 0.38976,-0.4252 0.0354,-0.2126 0.0709,-0.85039 0.0709,-1.91339 z"
     style="fill:#ffffff;fill-opacity:1;fill-rule:nonzero;stroke:#ffffff;stroke-opacity:1"
     id="67" />
  <path
     inkscape:connector-curvature="0"
     d="m 303.20078,147.54331 2.19685,0.24803 c -0.35433,1.27559 -0.99212,2.26771 -1.91338,2.97638 -0.9567,0.70866 -2.12599,1.06299 -3.57874,1.06299 -1.80709,0 -3.25985,-0.56693 -4.32284,-1.70079 -1.06299,-1.09843 -1.59449,-2.69291 -1.59449,-4.7126 0,-2.09055 0.5315,-3.72047 1.59449,-4.85433 1.09843,-1.16929 2.48032,-1.73622 4.21654,-1.73622 1.66535,0 3.01181,0.56693 4.0748,1.70079 1.06299,1.13386 1.59449,2.72834 1.59449,4.74803 0,0.14173 0,0.3189 -0.0354,0.56693 l -9.28346,0 c 0.1063,1.38189 0.46063,2.40945 1.16929,3.15354 0.70866,0.7441 1.55906,1.09843 2.62205,1.09843 0.74409,0 1.41732,-0.2126 1.94882,-0.60237 0.56693,-0.42519 0.99212,-1.06299 1.31102,-1.94881 z m -6.90945,-3.43701 6.94488,0 c -0.1063,-1.02756 -0.35433,-1.80709 -0.81496,-2.33858 -0.67322,-0.81497 -1.52362,-1.20473 -2.58661,-1.20473 -0.99213,0 -1.80709,0.3189 -2.44488,0.95669 -0.67323,0.6378 -1.02756,1.52363 -1.09843,2.58662 z"
     style="fill:#ffffff;fill-opacity:1;fill-rule:nonzero;stroke:#ffffff;stroke-opacity:1"
     id="68" />
  <path
     inkscape:connector-curvature="0"
     d="m 308.05511,139.11024 2.12599,0 0,5.17322 5.84645,0 0,-5.17322 2.09055,0 0,12.437 -2.09055,0 0,-5.52756 -5.84645,0 0,5.52756 -2.12599,0 z"
     style="fill:#ffffff;fill-opacity:1;fill-rule:nonzero;stroke:#ffffff;stroke-opacity:1"
     id="69" />
  <path
     inkscape:connector-curvature="0"
     d="m 321.30708,139.11024 2.12598,0 0,9.46062 5.84646,-9.46062 2.26772,0 0,12.437 -2.12599,0 0,-9.42519 -5.84645,9.42519 -2.26772,0 z"
     style="fill:#ffffff;fill-opacity:1;fill-rule:nonzero;stroke:#ffffff;stroke-opacity:1"
     id="70" />
  <path
     inkscape:connector-curvature="0"
     d="m 344.51574,139.11024 0,12.437 -2.09055,0 0,-4.85433 -1.24016,0 c -0.74409,0 -1.27559,0.1063 -1.62992,0.28347 -0.38976,0.17716 -0.92126,0.81496 -1.59449,1.84252 l -1.84252,2.72834 -2.62204,0 2.26771,-3.36614 c 0.70866,-1.02756 1.38189,-1.59449 2.09055,-1.73622 -1.20472,-0.14173 -2.09055,-0.60236 -2.69291,-1.27559 -0.56693,-0.70866 -0.85039,-1.52362 -0.85039,-2.44488 0,-1.06299 0.35433,-1.94882 1.13385,-2.62205 0.7441,-0.67323 1.84252,-0.99212 3.29528,-0.99212 z m -2.09055,1.73622 -3.01181,0 c -1.24016,0 -2.05512,0.17716 -2.44488,0.56692 -0.35433,0.38977 -0.5315,0.8504 -0.5315,1.38189 0,0.7441 0.28347,1.2756 0.81496,1.62993 0.5315,0.35433 1.48819,0.53149 2.83465,0.53149 l 2.33858,0 z"
     style="fill:#ffffff;fill-opacity:1;fill-rule:nonzero;stroke:#ffffff;stroke-opacity:1"
     id="71" />
  <path
     inkscape:connector-curvature="0"
     d="m 174.89763,195.16535 10.45276,0 0,15.16536 1.55905,0 0,6.02362 -2.05511,0 0,-4.00394 -11.33859,0 0,4.00394 -2.01968,0 0,-6.02362 1.31102,0 c 1.38189,-2.09055 2.09055,-6.30709 2.09055,-12.64961 z m 8.18504,2.01969 -5.98819,0 0,0.88582 c 0,1.45276 -0.14173,3.47245 -0.38976,5.98819 -0.28346,2.55118 -0.77953,4.64174 -1.55905,6.27166 l 7.937,0 z"
     style="fill:#ffffff;fill-opacity:1;fill-rule:nonzero;stroke:#ffffff;stroke-opacity:1"
     id="72" />
  <path
     inkscape:connector-curvature="0"
     d="m 192.5433,205.12205 0,1.73622 4.3937,0 c -0.14173,1.34645 -0.49606,2.33858 -1.06299,3.01181 -0.56693,0.67323 -1.34646,1.02756 -2.33858,1.02756 -1.77165,0 -2.83465,-1.02756 -3.15354,-3.08268 l -2.05512,0.24803 c 0.2126,1.38189 0.77953,2.48032 1.70079,3.33071 0.92125,0.81496 2.12598,1.24016 3.57874,1.24016 1.77165,0.1063 3.15354,-0.46063 4.11023,-1.70079 0.99213,-1.20473 1.45276,-2.79921 1.38189,-4.8189 0,-2.01968 -0.49606,-3.61417 -1.48819,-4.74803 -1.02756,-1.16929 -2.40945,-1.73622 -4.14567,-1.73622 -1.38189,0 -2.51575,0.35433 -3.36614,1.09842 -0.85039,0.7441 -1.38189,1.70079 -1.55905,2.87008 l 2.01968,0.3189 c 0.35433,-1.70079 1.34646,-2.55118 2.97638,-2.55118 0.95669,0 1.70079,0.35433 2.30315,1.02756 0.60236,0.70866 0.95669,1.59449 1.09842,2.72835 z"
     style="fill:#ffffff;fill-opacity:1;fill-rule:nonzero;stroke:#ffffff;stroke-opacity:1"
     id="73" />
  <path
     inkscape:connector-curvature="0"
     d="m 201.61417,199.91338 3.29527,0 3.25985,9.9567 3.6496,-9.9567 3.01181,0 0,12.43701 -2.09055,0 0,-10.02756 -3.68504,10.02756 -1.87795,0 -3.47244,-10.48819 0,10.48819 -2.09055,0 z"
     style="fill:#ffffff;fill-opacity:1;fill-rule:nonzero;stroke:#ffffff;stroke-opacity:1"
     id="74" />
  <path
     inkscape:connector-curvature="0"
     d="m 218.09055,199.91338 9.81496,0 0,12.43701 -2.12599,0 0,-10.70079 -5.59842,0 0,10.70079 -2.09055,0 z"
     style="fill:#ffffff;fill-opacity:1;fill-rule:nonzero;stroke:#ffffff;stroke-opacity:1"
     id="75" />
  <path
     inkscape:connector-curvature="0"
     d="m 238.2874,195.16535 2.12598,0 0,5.95276 c 0.4252,-0.49606 0.92126,-0.88583 1.41732,-1.13386 0.5315,-0.24803 1.09843,-0.35433 1.70079,-0.35433 1.48819,0 2.65748,0.60236 3.50787,1.84252 0.8504,1.24016 1.31103,2.76378 1.31103,4.64173 0,1.94882 -0.46063,3.50788 -1.41732,4.7126 -0.92126,1.20472 -2.09056,1.80709 -3.47245,1.80709 -0.42519,0 -0.88582,-0.0709 -1.38188,-0.2126 -0.46063,-0.14173 -1.02756,-0.5315 -1.66536,-1.13386 l 0,5.84646 -2.12598,0 0,-5.84646 c -0.4252,0.4252 -0.88583,0.77953 -1.38189,0.99213 -0.5315,0.24803 -1.063,0.35433 -1.66536,0.35433 -1.31102,0 -2.44488,-0.56693 -3.43701,-1.73622 -0.95669,-1.13386 -1.45275,-2.76378 -1.45275,-4.88977 0,-1.80708 0.4252,-3.33071 1.31102,-4.53543 0.88583,-1.24016 2.09055,-1.84252 3.57874,-1.84252 0.6378,0 1.20473,0.1063 1.70079,0.35433 0.49606,0.24803 0.95669,0.6378 1.34646,1.13386 z m 2.09055,11.01969 c 0,1.87795 0.28346,3.11811 0.77953,3.7559 0.53149,0.67323 1.16929,0.99213 1.94881,0.99213 0.8504,0 1.59449,-0.4252 2.19685,-1.20473 0.60237,-0.77952 0.88583,-2.01968 0.88583,-3.68503 0,-1.59449 -0.24803,-2.76378 -0.81496,-3.54331 -0.56693,-0.77953 -1.27559,-1.16929 -2.16142,-1.16929 -0.92126,0 -1.62992,0.42519 -2.12598,1.24015 -0.46063,0.77953 -0.70866,1.98426 -0.70866,3.61418 z m -7.86614,-0.24803 c 0,1.77165 0.28346,3.01181 0.85039,3.79133 0.60236,0.77953 1.34646,1.1693 2.19685,1.1693 0.92126,0 1.62992,-0.38977 2.05512,-1.1693 0.46063,-0.74409 0.70866,-1.91338 0.70866,-3.437 0,-1.66536 -0.24803,-2.87008 -0.74409,-3.72048 -0.46063,-0.81496 -1.1693,-1.20472 -2.12599,-1.20472 -0.88583,0 -1.59449,0.38976 -2.12598,1.20472 -0.56693,0.77953 -0.81496,1.91339 -0.81496,3.36615 z"
     style="fill:#ffffff;fill-opacity:1;fill-rule:nonzero;stroke:#ffffff;stroke-opacity:1"
     id="76" />
  <path
     inkscape:connector-curvature="0"
     d="m 250.79527,199.91338 2.09055,0 0,9.49607 5.84646,-9.49607 2.26771,0 0,12.43701 -2.09055,0 0,-9.42519 -5.84645,9.42519 -2.26772,0 z"
     style="fill:#ffffff;fill-opacity:1;fill-rule:nonzero;stroke:#ffffff;stroke-opacity:1"
     id="77" />
  <path
     inkscape:connector-curvature="0"
     d="m 264.18897,217.13386 0,-17.22048 1.91339,0 0,1.59449 c 0.46063,-0.60236 0.99212,-1.09842 1.55905,-1.41732 0.56693,-0.3189 1.24016,-0.46063 2.05512,-0.46063 1.06299,0 2.01968,0.28346 2.83465,0.81496 0.81496,0.5315 1.41732,1.31102 1.84252,2.30315 0.38976,0.99213 0.60236,2.09055 0.60236,3.29528 0,1.27559 -0.2126,2.40944 -0.67323,3.437 -0.46063,1.02756 -1.13386,1.80709 -2.01969,2.33859 -0.85039,0.53149 -1.77165,0.81496 -2.72834,0.81496 -0.70866,0 -1.34646,-0.14174 -1.87796,-0.46063 -0.56692,-0.28347 -1.02755,-0.67323 -1.38188,-1.09843 l 0,6.05906 z m 1.91339,-10.94882 c 0,1.62992 0.31889,2.79921 0.95669,3.57874 0.67323,0.74409 1.45276,1.13386 2.37402,1.13386 0.92126,0 1.73622,-0.38977 2.40944,-1.20473 0.67323,-0.77953 0.99213,-2.01968 0.99213,-3.68504 0,-1.55905 -0.3189,-2.76378 -0.95669,-3.5433 -0.67323,-0.77953 -1.45276,-1.20473 -2.33859,-1.20473 -0.92126,0 -1.70078,0.4252 -2.40944,1.27559 -0.67323,0.8504 -1.02756,2.05512 -1.02756,3.64961 z"
     style="fill:#ffffff;fill-opacity:1;fill-rule:nonzero;stroke:#ffffff;stroke-opacity:1"
     id="78" />
  <path
     inkscape:connector-curvature="0"
     d="m 277.47637,217.13386 -0.24803,-1.98426 c 0.46063,0.14174 0.85039,0.2126 1.20473,0.2126 0.46062,0 0.85039,-0.1063 1.13385,-0.24803 0.28347,-0.14173 0.49607,-0.38976 0.67323,-0.63779 0.14173,-0.2126 0.35433,-0.7441 0.6378,-1.59449 0.0709,-0.1063 0.1063,-0.28347 0.2126,-0.49606 l -4.74804,-12.47245 2.30315,0 2.58662,7.19292 c 0.3189,0.92126 0.63779,1.87795 0.88582,2.90551 0.24804,-0.99213 0.5315,-1.94882 0.88583,-2.87008 l 2.65748,-7.22835 2.09055,0 -4.7126,12.64961 c -0.53149,1.38189 -0.92126,2.30315 -1.20472,2.83465 -0.35433,0.67322 -0.81496,1.20472 -1.27559,1.52362 -0.49606,0.3189 -1.06299,0.49606 -1.73622,0.49606 -0.4252,0 -0.85039,-0.1063 -1.34646,-0.28346 z"
     style="fill:#ffffff;fill-opacity:1;fill-rule:nonzero;stroke:#ffffff;stroke-opacity:1"
     id="79" />
  <path
     inkscape:connector-curvature="0"
     d="m 289.55905,199.91338 2.12598,0 0,5.20867 2.55118,0 c 0.17717,-1.80709 0.7441,-3.15355 1.66536,-4.07481 0.92126,-0.95669 2.12598,-1.41732 3.61417,-1.41732 1.24016,0 2.23229,0.24803 2.97638,0.74409 0.70866,0.5315 1.31102,1.20473 1.80709,2.12599 0.46063,0.88583 0.70866,2.05512 0.70866,3.57874 0,2.16142 -0.49607,3.79134 -1.48819,4.88976 -0.95669,1.09843 -2.30315,1.66536 -3.96851,1.66536 -1.55905,0 -2.79921,-0.5315 -3.72047,-1.55906 -0.95669,-1.02756 -1.48819,-2.44488 -1.59449,-4.21653 l -2.55118,0 0,5.49212 -2.12598,0 z m 10.06299,1.48819 c -1.02756,0 -1.84252,0.4252 -2.40945,1.20473 -0.56693,0.77953 -0.85039,1.91338 -0.85039,3.33071 0,1.70078 0.28346,2.97637 0.85039,3.7559 0.60236,0.81496 1.38189,1.20473 2.33858,1.20473 0.9567,0 1.73623,-0.35433 2.37402,-1.09843 0.60236,-0.74409 0.92126,-1.94882 0.92126,-3.57874 0,-1.59449 -0.28346,-2.79921 -0.81496,-3.61417 -0.5315,-0.77953 -1.34646,-1.20473 -2.40945,-1.20473 z"
     style="fill:#ffffff;fill-opacity:1;fill-rule:nonzero;stroke:#ffffff;stroke-opacity:1"
     id="80" />
  <path
     inkscape:connector-curvature="0"
     d="m 307.62991,199.91338 2.09056,0 0,10.70079 4.81889,0 0,-10.70079 2.09055,0 0,10.70079 4.8189,0 0,-10.70079 2.12599,0 0,10.70079 1.38189,0 0,5.27953 -1.73622,0 0,-3.54331 -15.59056,0 z"
     style="fill:#ffffff;fill-opacity:1;fill-rule:nonzero;stroke:#ffffff;stroke-opacity:1"
     id="81" />
  <path
     inkscape:connector-curvature="0"
     d="m 327.29527,199.91338 2.09055,0 0,9.49607 5.84646,-9.49607 2.26771,0 0,12.43701 -2.09055,0 0,-9.42519 -5.84645,9.42519 -2.26772,0 z"
     style="fill:#ffffff;fill-opacity:1;fill-rule:nonzero;stroke:#ffffff;stroke-opacity:1"
     id="82" />
  <path
     inkscape:connector-curvature="0"
     d="m 349.22834,208.34646 2.16142,0.24803 c -0.35433,1.27559 -0.99213,2.26771 -1.91339,2.97637 -0.92126,0.70867 -2.12598,1.063 -3.54331,1.063 -1.84252,0 -3.25984,-0.56693 -4.35826,-1.70079 -1.063,-1.09843 -1.59449,-2.69291 -1.59449,-4.7126 0,-2.09055 0.53149,-3.72047 1.62992,-4.85433 1.06299,-1.16929 2.48031,-1.73622 4.1811,-1.73622 1.66536,0 3.04725,0.56693 4.0748,1.70079 1.063,1.13386 1.59449,2.72834 1.59449,4.78346 0,0.1063 0,0.3189 0,0.56693 l -9.28346,0 c 0.0709,1.34646 0.46063,2.40945 1.16929,3.11811 0.67323,0.7441 1.55905,1.09843 2.58661,1.09843 0.77953,0 1.41733,-0.2126 1.98426,-0.60237 0.53149,-0.42519 0.99212,-1.06299 1.31102,-1.94881 z m -6.94488,-3.40158 6.94488,0 c -0.0709,-1.06299 -0.35433,-1.84252 -0.77953,-2.37402 -0.67323,-0.81496 -1.55905,-1.20472 -2.62205,-1.20472 -0.95669,0 -1.77165,0.3189 -2.44488,0.95669 -0.67323,0.67323 -1.02756,1.52363 -1.09842,2.62205 z"
     style="fill:#ffffff;fill-opacity:1;fill-rule:nonzero;stroke:#ffffff;stroke-opacity:1"
     id="83" />
  <path
     inkscape:connector-curvature="0"
     d="m 368.82283,207.77953 2.09055,0.28346 c -0.24803,1.41732 -0.81496,2.55118 -1.73622,3.36614 -0.9567,0.81496 -2.09055,1.20473 -3.43701,1.20473 -1.73622,0 -3.08268,-0.56693 -4.11024,-1.66536 -1.06299,-1.13386 -1.55905,-2.72834 -1.55905,-4.78346 0,-1.34646 0.2126,-2.51575 0.67323,-3.54331 0.42519,-0.99213 1.09842,-1.77165 2.01968,-2.26772 0.92126,-0.49606 1.91339,-0.74409 2.97638,-0.74409 1.34646,0 2.44488,0.3189 3.29528,1.02756 0.88582,0.67323 1.41732,1.62992 1.66535,2.90551 l -2.05512,0.3189 c -0.17716,-0.8504 -0.53149,-1.45276 -1.02756,-1.87795 -0.49606,-0.4252 -1.09842,-0.6378 -1.80708,-0.6378 -1.063,0 -1.91339,0.38976 -2.58662,1.13386 -0.67323,0.77953 -0.99212,1.98425 -0.99212,3.61417 0,1.66536 0.31889,2.90551 0.95669,3.64961 0.63779,0.74409 1.48819,1.13386 2.51575,1.13386 0.81496,0 1.52362,-0.24804 2.05511,-0.77953 0.56693,-0.49606 0.92126,-1.27559 1.063,-2.33858 z"
     style="fill:#ffffff;fill-opacity:1;fill-rule:nonzero;stroke:#ffffff;stroke-opacity:1"
     id="84" />
  <path
     inkscape:connector-curvature="0"
     d="m 372.72046,199.91338 2.09056,0 0,9.49607 5.84645,-9.49607 2.26772,0 0,12.43701 -2.09055,0 0,-9.42519 -5.84646,9.42519 -2.26772,0 z"
     style="fill:#ffffff;fill-opacity:1;fill-rule:nonzero;stroke:#ffffff;stroke-opacity:1"
     id="85" />
  <path
     inkscape:connector-curvature="0"
     d="m 387.14172,199.91338 9.81496,0 0,12.43701 -2.12598,0 0,-10.70079 -5.56299,0 0,6.20079 c 0,1.45276 -0.0709,2.40945 -0.14173,2.87008 -0.1063,0.46063 -0.35433,0.85039 -0.77953,1.20473 -0.4252,0.31889 -1.02756,0.49606 -1.84252,0.49606 -0.49606,0 -1.06299,-0.0354 -1.70079,-0.0709 l 0,-1.77165 0.92126,0 c 0.46063,0 0.77953,-0.0354 0.95669,-0.14173 0.17717,-0.0709 0.3189,-0.2126 0.35433,-0.4252 0.0709,-0.17717 0.1063,-0.81496 0.1063,-1.91339 z"
     style="fill:#ffffff;fill-opacity:1;fill-rule:nonzero;stroke:#ffffff;stroke-opacity:1"
     id="86" />
  <path
     inkscape:connector-curvature="0"
     d="m 411.98031,199.91338 2.09055,0 0,12.43701 -2.09055,0 z m -11.79922,0 2.09056,0 0,4.85433 2.69291,0 c 1.73622,0 3.08268,0.35434 4.00394,1.02756 0.95669,0.67323 1.41732,1.59449 1.41732,2.76378 0,1.063 -0.38977,1.94882 -1.16929,2.69292 -0.77953,0.74409 -2.05512,1.09842 -3.75591,1.09842 l -5.27953,0 z m 2.09056,10.70079 2.23228,0 c 1.34646,0 2.30315,-0.17716 2.87008,-0.49606 0.56693,-0.3189 0.85039,-0.8504 0.85039,-1.52362 0,-0.5315 -0.2126,-1.02756 -0.63779,-1.45276 -0.4252,-0.4252 -1.34646,-0.63779 -2.79922,-0.63779 l -2.51574,0 z"
     style="fill:#ffffff;fill-opacity:1;fill-rule:nonzero;stroke:#ffffff;stroke-opacity:1"
     id="87" />
  <path
     inkscape:connector-curvature="0"
     d="m 491.10235,459.1063 1.20473,260.1496"
     style="fill:none;stroke:#ffffff;stroke-width:2.30314946px;stroke-linecap:butt;stroke-linejoin:miter;stroke-miterlimit:4;stroke-opacity:1;stroke-dasharray:none"
     id="88" />
  <path
     inkscape:connector-curvature="0"
     d="m 491.13778,463.64173 c -2.55118,0.0354 -4.64173,-2.05512 -4.64173,-4.6063 0,-2.55118 2.05512,-4.6063 4.6063,-4.64173 2.55118,0 4.64173,2.05512 4.64173,4.6063 0,2.55118 -2.05511,4.64173 -4.6063,4.64173 z"
     style="fill:#000000;fill-opacity:1;fill-rule:evenodd;stroke:#ffffff;stroke-width:1.1338582px;stroke-linecap:butt;stroke-linejoin:miter;stroke-miterlimit:4;stroke-opacity:1;stroke-dasharray:none"
     id="89" />
  <path
     inkscape:connector-curvature="0"
     d="m 492.20078,696.1181 -9.3189,-9.21259 9.4252,32.35039 9.1063,-32.42126 -9.2126,9.28346 z"
     style="fill:#000000;fill-opacity:1;fill-rule:evenodd;stroke:#ffffff;stroke-width:2.30314946px;stroke-linecap:butt;stroke-linejoin:miter;stroke-miterlimit:4;stroke-opacity:1;stroke-dasharray:none"
     id="90" />
  <path
     inkscape:connector-curvature="0"
     d="m 184.3937,261.49606 2.26771,0.56693 c -0.46063,1.84252 -1.31102,3.29528 -2.55118,4.25197 -1.24016,0.99212 -2.76378,1.48819 -4.53543,1.48819 -1.87795,0 -3.36614,-0.38977 -4.53543,-1.13386 -1.16929,-0.7441 -2.05512,-1.84252 -2.65748,-3.29528 -0.60237,-1.41732 -0.88583,-2.94094 -0.88583,-4.57086 0,-1.80709 0.3189,-3.36614 1.02756,-4.7126 0.67323,-1.31102 1.62992,-2.33858 2.90551,-3.01181 1.27559,-0.70866 2.65748,-1.06299 4.1811,-1.06299 1.70079,0 3.15355,0.46063 4.32284,1.31102 1.16929,0.88583 1.98425,2.12598 2.44488,3.72047 l -2.23228,0.5315 c -0.38977,-1.27559 -0.99213,-2.16142 -1.73623,-2.76378 -0.74409,-0.56693 -1.70078,-0.8504 -2.87007,-0.8504 -1.31103,0 -2.40945,0.3189 -3.29528,0.9567 -0.88583,0.63779 -1.52362,1.48819 -1.87795,2.55118 -0.35433,1.06299 -0.5315,2.16142 -0.5315,3.29527 0,1.45276 0.2126,2.72835 0.6378,3.82678 0.42519,1.09842 1.09842,1.91338 1.98425,2.44488 0.88583,0.53149 1.87795,0.81496 2.90551,0.81496 1.27559,0 2.37402,-0.35433 3.25984,-1.09843 0.88583,-0.74409 1.45276,-1.84252 1.77166,-3.25984 z"
     style="fill:#ffffff;fill-opacity:1;fill-rule:nonzero;stroke:#ffffff;stroke-opacity:1"
     id="91" />
  <path
     inkscape:connector-curvature="0"
     d="m 189.21259,255.04724 2.12599,0 0,9.49607 5.84646,-9.49607 2.26771,0 0,12.47244 -2.12598,0 0,-9.46063 -5.84646,9.46063 -2.26772,0 z"
     style="fill:#ffffff;fill-opacity:1;fill-rule:nonzero;stroke:#ffffff;stroke-opacity:1"
     id="92" />
  <path
     inkscape:connector-curvature="0"
     d="m 203.66929,255.04724 9.77952,0 0,12.47244 -2.09055,0 0,-10.70078 -5.59842,0 0,6.20078 c 0,1.41733 -0.0354,2.37402 -0.14173,2.83465 -0.1063,0.46063 -0.35433,0.88583 -0.77953,1.20472 -0.4252,0.35433 -1.02756,0.5315 -1.80709,0.5315 -0.49606,0 -1.06299,-0.0354 -1.70079,-0.1063 l 0,-1.73622 0.92126,0 c 0.4252,0 0.7441,-0.0709 0.92126,-0.14173 0.2126,-0.1063 0.3189,-0.24803 0.38977,-0.4252 0.0709,-0.2126 0.1063,-0.85039 0.1063,-1.91339 z"
     style="fill:#ffffff;fill-opacity:1;fill-rule:nonzero;stroke:#ffffff;stroke-opacity:1"
     id="93" />
  <path
     inkscape:connector-curvature="0"
     d="m 224.75196,265.96063 c -0.77952,0.67323 -1.52362,1.13386 -2.23228,1.41732 -0.74409,0.28347 -1.52362,0.4252 -2.33858,0.4252 -1.38189,0 -2.40945,-0.35433 -3.15355,-1.02756 -0.74409,-0.67323 -1.09842,-1.52362 -1.09842,-2.55118 0,-0.60236 0.14173,-1.16929 0.4252,-1.66536 0.24803,-0.49606 0.63779,-0.92126 1.06299,-1.20472 0.46063,-0.3189 0.95669,-0.5315 1.52362,-0.70866 0.4252,-0.1063 1.06299,-0.2126 1.87795,-0.3189 1.70079,-0.2126 2.97638,-0.4252 3.75591,-0.70866 0,-0.28347 0.0354,-0.49606 0.0354,-0.56693 0,-0.85039 -0.2126,-1.45276 -0.60236,-1.80709 -0.5315,-0.49606 -1.34646,-0.70866 -2.40945,-0.70866 -0.99213,0 -1.73622,0.17717 -2.19685,0.49606 -0.46063,0.35433 -0.81496,0.99213 -1.06299,1.84252 l -2.05512,-0.24803 c 0.17717,-0.88582 0.49606,-1.59449 0.92126,-2.16142 0.4252,-0.53149 1.06299,-0.95669 1.87795,-1.24015 0.81496,-0.28347 1.73622,-0.46063 2.83465,-0.46063 1.06299,0 1.91338,0.14173 2.58661,0.38976 0.6378,0.24803 1.13386,0.56693 1.45276,0.95669 0.3189,0.35433 0.53149,0.8504 0.63779,1.41733 0.0709,0.35433 0.1063,1.02756 0.1063,1.94882 l 0,2.79921 c 0,1.98425 0.0709,3.22441 0.14173,3.72047 0.1063,0.5315 0.28347,1.02756 0.5315,1.52362 l -2.19685,0 c -0.2126,-0.46063 -0.35433,-0.95669 -0.4252,-1.55905 z m -0.17716,-4.7126 c -0.7441,0.3189 -1.91339,0.60236 -3.43701,0.81496 -0.85039,0.1063 -1.48819,0.24803 -1.84252,0.4252 -0.35433,0.14173 -0.63779,0.38976 -0.81496,0.67323 -0.2126,0.31889 -0.3189,0.63779 -0.3189,0.99212 0,0.56693 0.2126,1.02756 0.6378,1.41732 0.42519,0.38977 1.06299,0.56693 1.87795,0.56693 0.81496,0 1.52362,-0.17716 2.16142,-0.53149 0.63779,-0.35433 1.09842,-0.8504 1.41732,-1.45276 0.2126,-0.49606 0.3189,-1.20472 0.3189,-2.12598 z"
     style="fill:#ffffff;fill-opacity:1;fill-rule:nonzero;stroke:#ffffff;stroke-opacity:1"
     id="94" />
  <path
     inkscape:connector-curvature="0"
     d="m 235.52362,255.04724 10.09842,0 0,1.77166 -4.00393,0 0,10.70078 -2.09056,0 0,-10.70078 -4.00393,0 z"
     style="fill:#ffffff;fill-opacity:1;fill-rule:nonzero;stroke:#ffffff;stroke-opacity:1"
     id="95" />
  <path
     inkscape:connector-curvature="0"
     d="m 257.45669,255.04724 0,12.47244 -2.09055,0 0,-4.85433 -1.20473,0 c -0.74409,0 -1.31102,0.0709 -1.66535,0.28347 -0.35433,0.17716 -0.88583,0.81496 -1.59449,1.84252 l -1.84252,2.72834 -2.62205,0 2.30315,-3.36614 c 0.67323,-1.02756 1.38189,-1.59449 2.05512,-1.73622 -1.20472,-0.17716 -2.09055,-0.60236 -2.65748,-1.31102 -0.60236,-0.70866 -0.88583,-1.48819 -0.88583,-2.40945 0,-1.09843 0.38977,-1.94882 1.13386,-2.62205 0.77953,-0.67323 1.87795,-1.02756 3.33071,-1.02756 z m -2.09055,1.77166 -3.01181,0 c -1.24016,0 -2.05512,0.17716 -2.40945,0.56692 -0.35433,0.38977 -0.56693,0.8504 -0.56693,1.38189 0,0.7441 0.28346,1.2756 0.81496,1.62993 0.53149,0.35433 1.48819,0.53149 2.83464,0.53149 l 2.33859,0 z"
     style="fill:#ffffff;fill-opacity:1;fill-rule:nonzero;stroke:#ffffff;stroke-opacity:1"
     id="96" />
  <path
     inkscape:connector-curvature="0"
     d="m 268.19291,255.04724 0,5.38583 c 0.67323,0 1.13386,-0.1063 1.41732,-0.38976 0.24803,-0.24804 0.67323,-0.99213 1.16929,-2.23229 0.49606,-1.20472 0.95669,-1.94882 1.34646,-2.26771 0.38976,-0.3189 0.99212,-0.49607 1.80709,-0.49607 l 0.77952,0 0,1.77166 -0.56693,-0.0354 c -0.56693,0 -0.92126,0.1063 -1.09842,0.24803 -0.14173,0.17717 -0.38977,0.70867 -0.7441,1.55906 -0.28346,0.77953 -0.60236,1.34646 -0.85039,1.66535 -0.28346,0.3189 -0.67323,0.60237 -1.24016,0.8504 0.92126,0.24803 1.80709,1.09842 2.65748,2.55118 l 2.33859,3.8622 -2.33859,0 -2.26771,-3.8622 c -0.46063,-0.77953 -0.8504,-1.31103 -1.20473,-1.55906 -0.3189,-0.2126 -0.74409,-0.35433 -1.20472,-0.35433 l 0,5.77559 -2.16142,0 0,-5.77559 c -0.49606,0 -0.88583,0.14173 -1.24016,0.35433 -0.31889,0.24803 -0.74409,0.7441 -1.20472,1.55906 l -2.26772,3.8622 -2.30315,0 2.30315,-3.8622 c 0.88583,-1.45276 1.77166,-2.30315 2.69292,-2.55118 -0.6378,-0.28347 -1.063,-0.60237 -1.31103,-0.92126 -0.24803,-0.35433 -0.63779,-1.16929 -1.13386,-2.44488 -0.17716,-0.4252 -0.35433,-0.70867 -0.56693,-0.77953 -0.17716,-0.1063 -0.49606,-0.17717 -0.88582,-0.17717 -0.1063,0 -0.3189,0 -0.60236,0.0354 l 0,-1.77166 0.28346,0 c 0.81496,0 1.38189,0.0709 1.70079,0.14173 0.35433,0.1063 0.63779,0.3189 0.88582,0.6378 0.28347,0.3189 0.60237,0.99213 1.02756,1.98425 0.5315,1.20473 0.92126,1.94882 1.20473,2.23229 0.24803,0.24803 0.74409,0.38976 1.41732,0.38976 l 0,-5.38583 z"
     style="fill:#ffffff;fill-opacity:1;fill-rule:nonzero;stroke:#ffffff;stroke-opacity:1"
     id="97" />
  <path
     inkscape:connector-curvature="0"
     d="m 285.23621,263.48031 2.19685,0.28347 c -0.35433,1.27559 -0.99212,2.26771 -1.91338,2.97638 -0.92126,0.70866 -2.12599,1.06299 -3.54331,1.06299 -1.84252,0 -3.29527,-0.56693 -4.35827,-1.70079 -1.06299,-1.13386 -1.59448,-2.69291 -1.59448,-4.7126 0,-2.09055 0.53149,-3.72047 1.62992,-4.88976 1.06299,-1.13386 2.48031,-1.73622 4.1811,-1.73622 1.66535,0 3.04724,0.56693 4.0748,1.70078 1.06299,1.13386 1.59449,2.72835 1.59449,4.78347 0,0.14173 0,0.3189 0,0.56693 l -9.28346,0 c 0.0709,1.38189 0.46063,2.40945 1.13385,3.15354 0.70867,0.70866 1.59449,1.09843 2.62205,1.09843 0.77953,0 1.41732,-0.2126 1.98425,-0.6378 0.5315,-0.38976 0.9567,-1.02756 1.27559,-1.94882 z m -6.90944,-3.40157 6.94488,0 c -0.1063,-1.02756 -0.35433,-1.80709 -0.77953,-2.33858 -0.67323,-0.81497 -1.55906,-1.24016 -2.62205,-1.24016 -0.95669,0 -1.77165,0.3189 -2.44488,0.99212 -0.67323,0.6378 -1.02756,1.52363 -1.09842,2.58662 z"
     style="fill:#ffffff;fill-opacity:1;fill-rule:nonzero;stroke:#ffffff;stroke-opacity:1"
     id="98" />
  <path
     inkscape:connector-curvature="0"
     d="m 298.20472,262.94882 2.09055,0.28346 c -0.24803,1.41732 -0.81496,2.51575 -1.73622,3.33071 -0.95669,0.81496 -2.09055,1.24016 -3.43701,1.24016 -1.70079,0 -3.08268,-0.56693 -4.11024,-1.70079 -1.06299,-1.09843 -1.55905,-2.69291 -1.55905,-4.78346 0,-1.34646 0.2126,-2.51575 0.67323,-3.50788 0.42519,-1.02756 1.09842,-1.77165 2.01968,-2.26771 0.92126,-0.49607 1.91339,-0.77953 2.97638,-0.77953 1.34646,0 2.44488,0.35433 3.33071,1.02756 0.85039,0.70866 1.38189,1.66535 1.62992,2.94094 l -2.05512,0.28347 c -0.17716,-0.81496 -0.53149,-1.45276 -1.02756,-1.87796 -0.49606,-0.42519 -1.09842,-0.63779 -1.80708,-0.63779 -1.06299,0 -1.91339,0.38976 -2.58662,1.16929 -0.67323,0.74409 -0.99212,1.94882 -0.99212,3.61417 0,1.66536 0.31889,2.87008 0.95669,3.61418 0.6378,0.77952 1.48819,1.16929 2.51575,1.16929 0.81496,0 1.52362,-0.28347 2.05512,-0.77953 0.56693,-0.49606 0.92126,-1.27559 1.06299,-2.33858 z"
     style="fill:#ffffff;fill-opacity:1;fill-rule:nonzero;stroke:#ffffff;stroke-opacity:1"
     id="99" />
  <path
     inkscape:connector-curvature="0"
     d="m 300.9685,255.04724 10.09842,0 0,1.77166 -4.00393,0 0,10.70078 -2.09056,0 0,-10.70078 -4.00393,0 z"
     style="fill:#ffffff;fill-opacity:1;fill-rule:nonzero;stroke:#ffffff;stroke-opacity:1"
     id="100" />
  <path
     inkscape:connector-curvature="0"
     d="m 313.12204,255.04724 2.09055,0 0,9.49607 5.84646,-9.49607 2.26771,0 0,12.47244 -2.09055,0 0,-9.46063 -5.84645,9.46063 -2.26772,0 z"
     style="fill:#ffffff;fill-opacity:1;fill-rule:nonzero;stroke:#ffffff;stroke-opacity:1"
     id="101" />
  <path
     inkscape:connector-curvature="0"
     d="m 372.18897,447.12992 64.55905,124.40551"
     style="fill:none;stroke:#ffffff;stroke-width:1.98425198px;stroke-linecap:butt;stroke-linejoin:miter;stroke-miterlimit:4;stroke-opacity:1;stroke-dasharray:1.9842519, 3.9685039;stroke-dashoffset:0"
     id="102" />
  <path
     inkscape:connector-curvature="0"
     d="m 427.53542,553.78346 -10.77165,-3.40157 19.98425,21.15354 -5.77559,-28.52362 -3.43701,10.77165 z"
     style="fill:#000000;fill-opacity:1;fill-rule:evenodd;stroke:#ffffff;stroke-width:1.98425198px;stroke-linecap:butt;stroke-linejoin:miter;stroke-miterlimit:4;stroke-opacity:1;stroke-dasharray:none"
     id="103" />
</svg>
